<svg height="512pt" viewBox="0 -53 512 512" width="512pt" xmlns="http://www.w3.org/2000/svg"><path d="m502 0h-54c-5.523438 0-10 4.476562-10 10v182h-16.957031c-2.652344 0-5.195313 1.054688-7.070313 2.929688l-17.816406 17.8125-118.929688-118.929688 13.054688-9.386719c4.484375-3.226562 5.507812-9.472656 2.28125-13.957031-3.222656-4.484375-9.472656-5.503906-13.957031-2.28125l-61.761719 44.402344c-7.085938 5.09375-16.675781 4.277344-22.800781-1.9375-6.761719-6.867188-6.714844-17.988282.105469-24.796875l53.601562-53.496094c7.988281-7.96875 18.601562-12.359375 29.882812-12.359375h90.367188c5.523438 0 10-4.476562 10-10s-4.476562-10-10-10h-90.367188c-16.617187 0-32.246093 6.464844-44.011718 18.203125l-1.253906 1.253906c-15.679688-12.550781-34.996094-19.4062498-55.371094-19.4492185l-112.996094-.0078125h-54c-5.523438 0-10 4.476562-10 10v192c0 5.523438 4.476562 10 10 10h54c.6875 0 1.355469-.070312 2.003906-.199219h22.386719l14.199219 14.195313-6.472656 6.472656c-13.5 13.5-13.5 35.460938 0 48.960938 6.746093 6.75 15.613281 10.121093 24.476562 10.121093.070312 0 .136719-.003906.203125-.003906 0 .074219-.003906.144531-.003906.21875 0 9.246094 3.601562 17.941406 10.140625 24.480469 6.75 6.75 15.613281 10.121094 24.476562 10.121094.074219 0 .148438-.003907.222656-.003907-.058593 8.9375 3.3125 17.894531 10.117188 24.699219 6.539062 6.539062 15.230469 10.140625 24.480469 10.140625.066406 0 .132812-.003906.203125-.003906 0 .066406-.007813.136719-.007813.203125 0 9.246094 3.601563 17.9375 10.140625 24.476562 6.75 6.75 15.613282 10.125 24.480469 10.125 8.863281 0 17.730469-3.375 24.480469-10.125l6.496094-6.496094c.160156.179688.3125.363282.484374.535157l15.046876 15.046875c6.75 6.746094 15.613281 10.121094 24.480468 10.121094 8.863282 0 17.730469-3.375 24.480469-10.125 6.800781-6.804688 10.171875-15.757813 10.117187-24.695313.070313 0 .144532.003906.21875.003906 8.863282 0 17.730469-3.375 24.480469-10.125 6.539063-6.539062 10.140625-15.230469 10.140625-24.480469 0-.070312-.007812-.144531-.007812-.21875.070312 0 .136718.007813.203125.007813 8.867187 0 17.730469-3.375 24.480469-10.125 6.800781-6.800781 10.171874-15.75 10.117187-24.683594.074219 0 .148437.007813.21875.007813 9.25 0 17.941406-3.601563 24.480469-10.140625 6.539062-6.539063 10.140625-15.234375 10.140625-24.480469s-3.601563-17.9375-10.140625-24.476562l-14.667969-14.667969 14.886719-14.886719h76.816406c5.523438 0 10-4.476562 10-10v-192c0-5.523438-4.476562-10-10-10zm-482 20h34v172h-34zm90.257812 247.285156c-5.699218-5.699218-5.699218-14.972656 0-20.675781l13.496094-13.496094c.015625-.015625.035156-.027343.050782-.042969.015624-.015624.03125-.035156.046874-.050781l17.3125-17.3125c5.699219-5.703125 14.972657-5.703125 20.675782 0 2.757812 2.761719 4.28125 6.433594 4.28125 10.335938 0 3.90625-1.523438 7.578125-4.28125 10.339843l-30.90625 30.902344c-5.699219 5.699219-14.976563 5.699219-20.675782 0zm34.816407 34.820313c-2.761719-2.761719-4.28125-6.433594-4.28125-10.339844 0-3.902344 1.519531-7.574219 4.28125-10.332031 0 0 0-.003906.003906-.003906l30.902344-30.90625c2.761719-2.761719 6.433593-4.28125 10.339843-4.28125 3.902344 0 7.574219 1.519531 10.335938 4.28125 5.699219 5.699218 5.699219 14.976562 0 20.675781l-30.90625 30.90625c-5.699219 5.699219-14.976562 5.699219-20.675781 0zm45.15625 39.097656c-3.90625 0-7.578125-1.519531-10.335938-4.28125-5.703125-5.699219-5.703125-14.976563 0-20.675781l30.90625-30.90625c2.847657-2.851563 6.589844-4.273438 10.335938-4.273438 3.742187 0 7.484375 1.425782 10.335937 4.273438 2.761719 2.761718 4.28125 6.433594 4.28125 10.339844 0 3.902343-1.519531 7.574218-4.28125 10.335937l-30.90625 30.90625c-2.761718 2.761719-6.429687 4.28125-10.335937 4.28125zm45.152343 30.535156c-5.699218 5.699219-14.972656 5.699219-20.671874 0-2.761719-2.761719-4.285157-6.433593-4.285157-10.339843 0-3.902344 1.523438-7.574219 4.285157-10.335938l30.902343-30.90625c5.703125-5.699219 14.976563-5.699219 20.675781 0 5.699219 5.699219 5.699219 14.976562 0 20.675781zm70.988282 9.082031c-5.699219 5.699219-14.972656 5.699219-20.671875 0l-15.046875-15.046874c-.171875-.171876-.355469-.328126-.535156-.484376l10.316406-10.316406c3.710937-3.710937 6.394531-8.0625 8.0625-12.703125l17.875 17.875c5.703125 5.699219 5.699218 14.976563 0 20.675781zm108.734375-114.789062c0 3.902344-1.519531 7.574219-4.28125 10.335938-2.761719 2.761718-6.433594 4.28125-10.335938 4.28125-3.90625 0-7.578125-1.519532-10.339843-4.28125l-65.0625-65.0625c-3.902344-3.902344-10.234376-3.902344-14.140626 0-3.90625 3.90625-3.90625 10.238281 0 14.144531l12.300782 12.300781c0 .003906 0 .003906.003906.003906l52.757812 52.757813c5.699219 5.699219 5.699219 14.976562 0 20.675781-5.699218 5.699219-14.976562 5.699219-20.675781 0l-52.757812-52.757812-12.304688-12.308594c-3.90625-3.902344-10.238281-3.902344-14.144531 0-3.902344 3.90625-3.902344 10.238281 0 14.144531l12.304688 12.304687 52.761718 52.757813c2.757813 2.761719 4.28125 6.433594 4.28125 10.339844 0 3.902343-1.523437 7.574219-4.28125 10.335937-5.703125 5.703125-14.976562 5.703125-20.675781 0l-40.035156-40.035156c-.324219-.320312-.667969-.609375-1.023438-.878906-6.667969-6.175782-15.191406-9.242188-23.707031-9.191406 0-.074219.003906-.144532.003906-.21875 0-9.246094-3.601562-17.941407-10.140625-24.480469-6.804687-6.804688-15.757812-10.175781-24.699219-10.117188.058594-8.9375-3.3125-17.894531-10.117187-24.699219-6.539063-6.539062-15.230469-10.140624-24.480469-10.140624-.066406 0-.132812.003906-.203125.003906 0-.066406.007813-.132813.007813-.199219 0-9.246094-3.601563-17.941406-10.140625-24.480469-13.5-13.496094-35.460938-13.5-48.960938 0l-10.289062 10.289063-17.125-17.125c-1.875-1.875-4.417969-2.929688-7.074219-2.929688h-18.53125v-171.800781h99.953125l3 .007812c15.03125.03125 29.328125 4.835938 41.15625 13.683594l-38.085937 38.007813c-14.578126 14.546875-14.679688 38.320312-.226563 52.988281 7.339844 7.449219 17.003906 11.269531 26.75 11.269531 7.636719 0 15.320313-2.34375 21.972656-7.128906l32.253907-23.1875 128.269531 128.273437c.015625.015626.027343.03125.042969.046876.011718.011718.027343.023437.042968.039062l21.695313 21.695312c2.761719 2.757813 4.28125 6.433594 4.28125 10.335938zm76.894531-74.03125h-34v-172h34zm0 0"/><path d="m408 20c2.628906 0 5.210938-1.070312 7.070312-2.929688 1.859376-1.859374 2.929688-4.4375 2.929688-7.070312 0-2.628906-1.070312-5.210938-2.929688-7.070312-1.859374-1.859376-4.441406-2.929688-7.070312-2.929688s-5.210938 1.070312-7.070312 2.929688c-1.859376 1.859374-2.929688 4.429687-2.929688 7.070312 0 2.632812 1.070312 5.210938 2.929688 7.070312 1.859374 1.859376 4.441406 2.929688 7.070312 2.929688zm0 0"/></svg>