<svg xmlns="http://www.w3.org/2000/svg" viewBox="0 0 524.82 524.82"><defs><style>.cls-1,.cls-3{fill:#006aa9;}.cls-1{stroke:#fff;stroke-width:10px;}.cls-2{fill:#fff;}</style></defs><title>Flag_of_Yap</title><g id="kos_shoreline_190219_area"><circle class="cls-1" cx="262.41" cy="262.41" r="257.41"/><path class="cls-2" d="M930,282.8,947.3,285c70.44,8.88,120.4,48.22,133.52,111.66,12.11,58.62-14.59,125.28-76.08,146.93-14.42,5.07-23,9.9-28.83,27.65-2.27,7-12.63,21.52-24.09,35-6.43,7.54-20.76,20.3-22.22,20.3s-9.4-9.89-18.7-19.73c-11.62-12.29-21.84-26.64-24.36-35.95-2-7.46-10.51-15.14-11-17.06-1.5-5.53-27.16-18.77-53.76-25.88-16.33-4.36-34.65-7-62.19-8.15-38.49-1.53-37.55-1.29-33.49,3.65,3.74,4.55,3.78,5.63,0,8-5.93,3.78-17.27,3.54-19.67-.39-1.08-1.76-.26-5.25,1.8-7.76,3-3.69-.13-7.26-4.24-10.28H853.73A76.27,76.27,0,0,1,930,436.73Z" transform="translate(-667.79 -250.47)"/><circle class="cls-3" cx="262.41" cy="262.41" r="57.2"/><path class="cls-2" d="M930.19,479.94l19.62,60.37L898.46,503h63.47l-51.35,37.31Z" transform="translate(-667.79 -250.47)"/></g></svg>