<svg id="Layer_1" data-name="Layer 1" xmlns="http://www.w3.org/2000/svg" viewBox="0 0 221.25 221.42"><defs><style>.cls-1{fill:#08298c;}</style></defs><title>Flag_of_Chuuk</title><g id="half"><polygon id="star" class="cls-1" points="123.75 13.67 122.77 21.55 128.19 15.75 135.38 19.11 131.54 12.17 136.97 6.38 129.17 7.87 125.34 0.93 124.36 8.8 116.56 10.3 123.75 13.67"/><polygon class="cls-1" points="139.55 17.16 137.28 24.76 143.58 19.94 150.12 24.44 147.48 16.95 153.79 12.13 145.85 12.33 143.21 4.84 140.94 12.46 133 12.65 139.55 17.16"/><polygon class="cls-1" points="154.55 23.19 151.06 30.32 158.07 26.6 163.78 32.12 162.41 24.3 169.42 20.58 161.56 19.47 160.19 11.65 156.7 18.79 148.84 17.67 154.55 23.19"/><polygon class="cls-1" points="168.36 31.61 163.74 38.08 171.27 35.56 175.99 41.94 175.92 34 183.45 31.49 175.88 29.1 175.82 21.16 171.2 27.62 163.63 25.23 168.36 31.61"/><polygon class="cls-1" points="180.59 42.2 174.97 47.81 182.81 46.56 186.42 53.63 187.66 45.8 195.5 44.56 188.43 40.95 189.67 33.11 184.05 38.73 176.98 35.12 180.59 42.2"/><polygon class="cls-1" points="190.91 54.65 184.45 59.26 192.38 59.32 194.78 66.89 197.29 59.36 205.23 59.43 198.84 54.71 201.36 47.18 194.9 51.79 188.51 47.08 190.91 54.65"/><polygon class="cls-1" points="199.04 68.63 191.91 72.11 199.72 73.48 200.84 81.34 204.56 74.33 212.38 75.7 206.86 69.99 210.58 62.98 203.44 66.47 197.93 60.76 199.04 68.63"/><polygon class="cls-1" points="204.76 83.75 197.15 86.02 204.64 88.65 204.45 96.59 209.27 90.28 216.75 92.93 212.25 86.39 217.07 80.08 209.46 82.35 204.96 75.81 204.76 83.75"/><polygon class="cls-1" points="207.91 99.62 200.04 100.59 206.99 104.42 205.49 112.22 211.28 106.8 218.23 110.64 214.87 103.45 220.66 98.02 212.78 99 209.41 91.82 207.91 99.62"/><polygon class="cls-1" points="208.41 115.78 200.48 115.45 206.71 120.37 203.95 127.82 210.55 123.42 216.78 128.35 214.64 120.7 221.25 116.31 213.31 115.98 211.17 108.33 208.41 115.78"/><polygon class="cls-1" points="206.25 131.81 198.47 130.18 203.81 136.05 199.86 142.94 207.1 139.69 212.42 145.58 211.57 137.69 218.82 134.44 211.04 132.81 210.19 124.92 206.25 131.81"/><polygon class="cls-1" points="201.47 147.26 194.07 144.37 198.36 151.05 193.34 157.19 201.01 155.18 205.29 161.86 205.76 153.94 213.43 151.92 206.04 149.03 206.5 141.11 201.47 147.26"/><polygon class="cls-1" points="194.21 161.71 187.39 157.65 190.53 164.94 184.56 170.17 192.46 169.45 195.58 176.75 197.34 169 205.25 168.28 198.43 164.22 200.19 156.48 194.21 161.71"/><polygon class="cls-1" points="184.68 174.78 178.62 169.64 180.51 177.35 173.76 181.53 181.68 182.12 183.56 189.83 186.57 182.48 194.48 183.07 188.42 177.94 191.43 170.59 184.68 174.78"/><polygon class="cls-1" points="173.12 186.09 167.99 180.03 168.59 187.94 161.24 190.96 168.95 192.84 169.54 200.76 173.72 194 181.43 195.89 176.29 189.83 180.47 183.08 173.12 186.09"/><polygon class="cls-1" points="159.86 195.35 155.8 188.53 155.09 196.43 147.34 198.19 154.64 201.32 153.91 209.22 159.15 203.25 166.44 206.38 162.38 199.56 167.61 193.59 159.86 195.35"/><polygon class="cls-1" points="145.26 202.3 142.38 194.9 140.37 202.58 132.44 203.04 139.13 207.33 137.11 215.01 143.25 209.98 149.93 214.26 147.05 206.87 153.19 201.84 145.26 202.3"/><polygon class="cls-1" points="129.71 206.75 128.09 198.98 124.84 206.22 116.95 205.38 122.83 210.7 119.58 217.94 126.47 213.99 132.35 219.32 130.72 211.55 137.61 207.6 129.71 206.75"/><polygon class="cls-1" points="113.64 208.58 113.32 200.65 108.93 207.26 101.28 205.13 106.21 211.35 101.81 217.96 109.25 215.19 114.18 221.42 113.85 213.48 121.29 210.72 113.64 208.58"/></g><polygon class="cls-1" points="97.49 207.75 98.48 199.87 93.06 205.66 85.87 202.3 89.7 209.25 84.27 215.04 92.07 213.54 95.91 220.49 96.89 212.61 104.69 211.11 97.49 207.75"/><polygon class="cls-1" points="81.7 204.26 83.97 196.65 77.67 201.48 71.13 196.98 73.77 204.46 67.46 209.28 75.4 209.09 78.04 216.57 80.31 208.96 88.24 208.76 81.7 204.26"/><polygon class="cls-1" points="66.7 198.22 70.19 191.09 63.18 194.82 57.47 189.3 58.84 197.12 51.83 200.83 59.69 201.95 61.06 209.76 64.55 202.63 72.41 203.74 66.7 198.22"/><polygon class="cls-1" points="52.89 189.8 57.51 183.34 49.98 185.86 45.26 179.48 45.33 187.41 37.79 189.93 45.37 192.32 45.43 200.25 50.05 193.79 57.62 196.18 52.89 189.8"/><polygon class="cls-1" points="40.66 179.22 46.28 173.61 38.44 174.85 34.83 167.78 33.59 175.62 25.75 176.86 32.82 180.46 31.58 188.3 37.2 182.69 44.27 186.29 40.66 179.22"/><polygon class="cls-1" points="30.34 166.77 36.8 162.16 28.86 162.1 26.47 154.53 23.96 162.06 16.02 161.99 22.4 166.71 19.89 174.24 26.35 169.62 32.73 174.34 30.34 166.77"/><polygon class="cls-1" points="22.2 152.79 29.34 149.31 21.52 147.94 20.4 140.08 16.69 147.09 8.87 145.71 14.39 151.42 10.67 158.43 17.8 154.95 23.32 160.65 22.2 152.79"/><polygon class="cls-1" points="16.48 137.66 24.09 135.4 16.61 132.77 16.8 124.83 11.98 131.13 4.49 128.49 9 135.03 4.18 141.33 11.79 139.07 16.29 145.6 16.48 137.66"/><polygon class="cls-1" points="13.33 121.8 21.21 120.82 14.26 116.99 15.76 109.19 9.96 114.62 3.02 110.78 6.38 117.97 0.59 123.39 8.47 122.41 11.84 129.6 13.33 121.8"/><polygon class="cls-1" points="12.83 105.64 20.77 105.97 14.54 101.04 17.3 93.6 10.69 98 4.47 93.06 6.61 100.71 0 105.11 7.93 105.44 10.07 113.08 12.83 105.64"/><polygon class="cls-1" points="15 89.61 22.77 91.24 17.44 85.36 21.39 78.47 14.15 81.72 8.82 75.83 9.67 83.73 2.43 86.98 10.2 88.61 11.05 96.5 15 89.61"/><polygon class="cls-1" points="19.78 74.16 27.17 77.05 22.88 70.37 27.91 64.22 20.23 66.24 15.95 59.55 15.49 67.48 7.81 69.49 15.21 72.38 14.75 80.31 19.78 74.16"/><polygon class="cls-1" points="27.03 59.7 33.85 63.77 30.72 56.48 36.69 51.24 28.79 51.97 25.66 44.67 23.9 52.41 16 53.13 22.82 57.2 21.06 64.94 27.03 59.7"/><polygon class="cls-1" points="36.57 46.64 42.63 51.77 40.74 44.07 47.48 39.88 39.57 39.3 37.69 31.59 34.68 38.93 26.77 38.34 32.82 43.48 29.82 50.82 36.57 46.64"/><polygon class="cls-1" points="48.12 35.33 53.25 41.39 52.66 33.47 60 30.46 52.29 28.58 51.71 20.66 47.53 27.41 39.82 25.53 44.95 31.59 40.77 38.34 48.12 35.33"/><polygon class="cls-1" points="61.38 26.07 65.45 32.89 66.16 24.98 73.9 23.22 66.61 20.1 67.33 12.19 62.1 18.16 54.81 15.04 58.87 21.86 53.64 27.83 61.38 26.07"/><polygon class="cls-1" points="75.99 19.12 78.87 26.51 80.88 18.84 88.8 18.37 82.12 14.09 84.14 6.41 78 11.44 71.31 7.15 74.2 14.55 68.06 19.58 75.99 19.12"/><polygon class="cls-1" points="91.53 14.66 93.16 22.44 96.4 15.19 104.3 16.04 98.41 10.71 101.67 3.47 94.78 7.42 88.89 2.1 90.52 9.87 83.64 13.82 91.53 14.66"/><polygon class="cls-1" points="107.6 12.83 107.93 20.77 112.32 14.15 119.97 16.29 115.04 10.07 119.44 3.46 112 6.22 107.07 0 107.39 7.93 99.95 10.7 107.6 12.83"/><path class="cls-1" d="M257.13,161c-5.32-5.31-10.09-13.37-13.1-21.74-.19.07-.37.15-.56.21l-1.38.41.45-1.37c.22-.66.41-1.28.6-1.89-2.18-7-3.09-14-2-19.62,5.55,8.78,5.13,12.61,2.13,21.75,8.5-2.56,11.58-18.64,2.87-25.5C257.75,116.19,265,121,268.5,131c4.33-11.06-8.42-23.89-15.38-24.5,6.8-6.47,18.88-4.14,23.88,3.25,1.58-8.64-17-16.22-24-10.75,1-12,8.58-19,15.75-18.25-8.92-5.81-20.67,2.61-25.38,14.75,0-12.64-10.2-27.22-21.12-27,5.64,5.64,6.83,9.94,12.5,29.5-9-9.14-27.08-5.31-29.75-1.12,9.75-.6,19.25,2.15,24.87,6.75-13.08-1.5-24.87,14.4-20,21.12,3-10.56,14-15.14,25.75-11.37-8.16,5.61-12.12,18.9-10.37,24.75,4-4.1,8.75-12.1,13.75-19.88-3.83,20.69,8.1,44.1,18.75,54.75,5.93,5.93,13.95,12.37,19.75,15H306C283.5,180.19,269.39,173.26,257.13,161Z" transform="translate(-145.38 -17.29)"/></svg>