<svg id="Layer_1" data-name="Layer 1" xmlns="http://www.w3.org/2000/svg" viewBox="0 0 330.56 283.5"><defs><style>.cls-1{fill:#4d87ca;}</style></defs><title>Flag_of_Kosrae</title><path class="cls-1" d="M313.56,185.23h28l8.75-28,8.75,28h28l-21,15.75,7,28-22.75-17.5L327.56,229l8.75-28Z" transform="translate(-183.85 -41.73)"/><path class="cls-1" d="M335.26,241.23c0,7,.71,12.66,3.29,17.63,7.21,13.87-8.78,40-19,66.37h61.25c-10.24-26.33-28-52.5-19.66-66.23,2.26-3.71,3.53-10.83,3.91-17.77Z" transform="translate(-183.85 -41.73)"/><path class="cls-1" d="M357.68,125.73h28l8.75-28,8.75,28h28l-21,15.75,7,28L394.43,152l-22.75,17.5,8.75-28Z" transform="translate(-183.85 -41.73)"/><path class="cls-1" d="M267,125.73h28l8.75-28,8.75,28h28l-21,15.75,7,28L303.73,152,281,169.48l8.75-28Z" transform="translate(-183.85 -41.73)"/><path class="cls-1" d="M312.81,69.73h28l8.75-28,8.75,28h28l-21,15.75,7,28L349.56,96l-22.75,17.5,8.75-28Z" transform="translate(-183.85 -41.73)"/><path class="cls-1" d="M302.05,281.74l1.44-8.62C272.89,236.61,228,182.26,207,134.52c2.58,26.59,37,72.61,56.43,97.72,12.94,16.72,26.36,33.3,38.6,49.5Z" transform="translate(-183.85 -41.73)"/><path class="cls-1" d="M235,233.39c9.46-6.16,19.89-3.94,28.64-2.19l7,8.27C259.2,243.62,242.75,243,235,233.39Z" transform="translate(-183.85 -41.73)"/><path class="cls-1" d="M219.78,212.53c9.47-6.17,18.22-4.42,27-2.67l7,8.75c-11.47,4.15-26.25,3.5-34-6.08Z" transform="translate(-183.85 -41.73)"/><path class="cls-1" d="M206.17,191.25c9.82-5.59,18.45-3.31,27.08-1l6.46,9.15c-11.7,3.46-26.41,1.92-33.54-8.11Z" transform="translate(-183.85 -41.73)"/><path class="cls-1" d="M193.06,166.64c10.39-4.44,18.71-1.22,27,2l5.39,9.82c-12,2.12-26.46-1.06-32.42-11.83Z" transform="translate(-183.85 -41.73)"/><path class="cls-1" d="M183.86,137.39c11.22-1.29,19.95,4.19,27,9.66l4.27,11c-12.13-1.42-28.65-8.6-31.27-20.63Z" transform="translate(-183.85 -41.73)"/><path class="cls-1" d="M202.25,98.57c9.56,12.22,12.49,25.49,5.36,39.54-11.26-9-13.54-30.34-5.36-39.54Z" transform="translate(-183.85 -41.73)"/><path class="cls-1" d="M273.4,198.34c-7.95,8-7.53,20.3-7.59,29.22l5.95,8.39c6.39-10.4,9.46-28.11,1.64-37.61Z" transform="translate(-183.85 -41.73)"/><path class="cls-1" d="M257.9,179.77c-8,8-7.8,19.48-6,28.23l4.88,8.72c6.39-10.4,9-27.47,1.15-37Z" transform="translate(-183.85 -41.73)"/><path class="cls-1" d="M242.81,159.89c-7.95,8-8,17-8.07,25.87l7.15,8.63c6.39-10.4,8.74-25,.92-34.5Z" transform="translate(-183.85 -41.73)"/><path class="cls-1" d="M234.69,140.67c-9.38,6.3-10.48,17.52-12.3,26.25l4.61,7.39c8.31-8.93,13.49-22.78,7.69-33.64Z" transform="translate(-183.85 -41.73)"/><path class="cls-1" d="M224.33,121.25c-9.37,6.32-11.17,15.06-13,23.8l5.33,9.85c8.29-9,13.45-22.81,7.63-33.65Z" transform="translate(-183.85 -41.73)"/><path class="cls-1" d="M396.2,281.49l-1.44-8.61c30.6-36.52,75.52-90.86,96.47-138.6-2.58,26.58-37,72.6-56.43,97.72-12.94,16.71-26.36,33.3-38.6,49.49Z" transform="translate(-183.85 -41.73)"/><path class="cls-1" d="M463.22,233.14c-9.46-6.16-19.89-3.94-28.64-2.19l-7,8.28C439.05,243.38,455.5,242.73,463.22,233.14Z" transform="translate(-183.85 -41.73)"/><path class="cls-1" d="M478.47,212.28c-9.47-6.16-18.22-4.41-27-2.66l-7,8.75c11.47,4.15,26.25,3.5,34-6.09Z" transform="translate(-183.85 -41.73)"/><path class="cls-1" d="M492.08,191c-9.82-5.58-18.45-3.31-27.08-1l-6.46,9.16c11.7,3.45,26.41,1.91,33.54-8.12Z" transform="translate(-183.85 -41.73)"/><path class="cls-1" d="M505.19,166.4c-10.39-4.45-18.71-1.22-27,2l-5.39,9.83c12,2.12,26.46-1.06,32.42-11.83Z" transform="translate(-183.85 -41.73)"/><path class="cls-1" d="M514.39,137.14c-11.22-1.28-19.95,4.19-27,9.67l-4.27,10.95c12.13-1.41,28.65-8.6,31.27-20.62Z" transform="translate(-183.85 -41.73)"/><path class="cls-1" d="M496,98.33c-9.56,12.22-12.49,25.48-5.37,39.53,11.27-9,13.55-30.33,5.37-39.53Z" transform="translate(-183.85 -41.73)"/><path class="cls-1" d="M424.85,198.09c7.95,8,7.53,20.3,7.59,29.22l-6,8.39c-6.39-10.4-9.46-28.11-1.63-37.61Z" transform="translate(-183.85 -41.73)"/><path class="cls-1" d="M440.35,179.52c8,8,8.5,19.49,6.75,28.24l-5.6,8.71c-6.39-10.4-9-27.46-1.15-37Z" transform="translate(-183.85 -41.73)"/><path class="cls-1" d="M455.44,159.64c7.95,8,8,17,8.07,25.87l-7.15,8.63c-6.39-10.4-8.75-25-.92-34.5Z" transform="translate(-183.85 -41.73)"/><path class="cls-1" d="M463.56,140.42c9.38,6.31,11.19,15,13,23.78l-5.31,9.87c-8.31-8.94-13.49-22.79-7.69-33.65Z" transform="translate(-183.85 -41.73)"/><path class="cls-1" d="M473.92,121c9.37,6.32,10.1,17.89,11.9,26.63l-4.27,7c-8.29-8.95-13.45-22.81-7.63-33.66Z" transform="translate(-183.85 -41.73)"/></svg>