<svg xmlns="http://www.w3.org/2000/svg" viewBox="0 0 615.28 575.35"><defs><style>.cls-1{fill:#0039ad;}.cls-2,.cls-3{fill:#fff;stroke:#0039ad;stroke-linejoin:round;stroke-width:8px;}.cls-3{stroke-linecap:round;}</style></defs><title>Flag_of_Pohnpei</title><g id="kos_shoreline_190219_area"><path class="cls-1" d="M925.2,255h16.94l5.3-16.94L952.73,255h16.94L957,264.53l4.23,16.94-13.76-10.59-13.77,10.59,5.3-16.94Z" transform="translate(-641.04 -238.06)"/><path class="cls-1" d="M865.24,274h17l5.29-16.94L892.77,274h16.94L897,283.53l4.23,16.94-13.76-10.59-13.77,10.59,5.3-16.94Z" transform="translate(-641.04 -238.06)"/><path class="cls-1" d="M826.83,320h16.94l5.3-16.94L854.36,320H871.3l-12.7,9.53,4.23,16.94-13.76-10.59L835.3,346.47l5.3-16.94Z" transform="translate(-641.04 -238.06)"/><path class="cls-1" d="M815.31,380h16.94l5.29-16.94,5.3,16.94h16.94l-12.71,9.53,4.24,16.94-13.77-10.59-13.76,10.59,5.29-16.94Z" transform="translate(-641.04 -238.06)"/><path class="cls-1" d="M835.48,439h16.94l5.29-16.94L863,439H880l-12.71,9.53,4.24,16.94-13.77-10.59L844,465.47l5.29-16.94Z" transform="translate(-641.04 -238.06)"/><path class="cls-1" d="M888.3,476h16.94l5.29-16.94,5.3,16.94h16.94l-12.71,9.53,4.24,16.94-13.77-10.59-13.76,10.59,5.29-16.94Z" transform="translate(-641.04 -238.06)"/><path class="cls-1" d="M961.76,475H978.7l5.3-16.94L989.29,475h16.94l-12.71,9.53,4.24,16.94L984,490.88l-13.77,10.59,5.3-16.94Z" transform="translate(-641.04 -238.06)"/><path class="cls-1" d="M1015.06,441H1032l5.3-16.94,5.29,16.94h16.94l-12.7,9.53,4.23,16.94-13.76-10.59-13.77,10.59,5.3-16.94Z" transform="translate(-641.04 -238.06)"/><path class="cls-1" d="M1033.31,381h16.94l5.29-16.94,5.3,16.94h16.94l-12.71,9.53,4.24,16.94-13.77-10.59-13.76,10.59,5.29-16.94Z" transform="translate(-641.04 -238.06)"/><path class="cls-1" d="M1027.07,319H1044l5.3-16.94L1054.6,319h16.94l-12.71,9.53,4.24,16.94-13.76-10.59-13.77,10.59,5.29-16.94Z" transform="translate(-641.04 -238.06)"/><path class="cls-1" d="M840.67,246.78c-8.45,2.81-48.59,35.44-70.36,52.25l-9.59-16.1-12,11.29L742,282.93c-15.07,7.63-23.39,36.22-34.58,53.55l-7.54-10.82-4.46,25.7-13.31-8.89c-1.12,19.95,4,53-3,63.16-3.65,3-11.81-14-17.48-21.1-2.73,35.31,4.79,66.2,6,84-4.52,0-10.82-9-17.49-19.71,4.25,18.82,15.29,51,11.73,62-4.06.38-11.49-7.14-17.68-17.46,6.14,17.25,16.39,43.54,16.23,48.19-4.8,6-14.51-3.66-19.31-8.47,3.29,16.14,23.33,31.56,22.68,41.6-3.62,3.49-14-1.7-19.8-2.51,10.48,22.66,30,37.81,44.77,47.65.71,4.5-13.66,4-19.43,6.33,18.09,21.28,52.78,42.09,75.24,54.65l-13.66,9.12c41.5,22.83,89.53,43.59,146.08,47.06C820.1,757.88,764.38,785,753,812.45c25.11-3.89,56.38-13.61,89.39-11.58,23.38-23.34,35.88-53,109.43-53.35,56.49-.26,82.64,28.23,104.68,56,21.68-4.57,56.55,4.09,84.48,9.94-7-32.38-75.26-55.08-120.49-77.41,44.09-3.24,88.83-11.28,143.68-46.44-12.2.33-15.35-1.83-15.3-7.63,21.48-11.06,60.68-33.87,71.14-55.95-6.34,1.76-12-1.11-14.19-5.65,19.17-12.68,39.19-25.66,45.41-46.55-6.76,3-16.18,6.16-19,.39,8.43-12.56,25.37-26.41,24-44.87-4.81,7.64-15.34,15.32-20.14,12.22,3.93-11.14,14.1-28.93,15.42-44.43-3.65,11.7-12.06,13.71-17.82,12.74-.08-9.74,4.64-31.5,11.1-56.49-4.24,6-11.88,15.74-18.3,15.19,3.19-24,7.63-49,6.72-83.32-5.6,10.33-11.21,17.27-16.81,19-4.75-5.47,1.1-40.29-3.84-62.19-2.87,9.5-8,11.9-13,10.81l-4-28.15-9.32,14.28c-11.34-29.47-22.63-48.55-33-57.16l-6.52,13.41-13.5-11.78-10,15.62C1095.14,269.37,1076,261,1056,247.45c4.73,15.05,30.58,40.38,45.67,60.22-7.36-.6-19.64-4.18-27-.81a243.88,243.88,0,0,0,41.4,31.55l-14.51,3.36c12.23,14,31.46,27.22,37.56,43.21l-17.25-3.21c8.53,13.16,21.58,22.28,32.08,43.3-3.29,3.95-10.2,5.15-19.74-1.3,12.81,23.12,21.63,47.58,23.64,66.38L1145.57,480c1.54,24.23,8,56.51,7.46,72.62-4.32,2.13-8.65-7.85-13-16.63-1.4,27.3-6.79,43.2-12.48,51.2l-5.65-10.85c-2.69,21.45-8.26,35-13,46.4l-6.25-20c-6.4,17.31-12.19,44.79-20.64,49.76l-9.61-14.18c-6.61,13.09-12.45,32.63-21.11,39.62l-6.24-12c-24.22,30.66-39.67,61.07-93.64,63.38-59.28-1.36-77.32-38.24-102.81-66.85l-5.23,16.43-19.21-37-12,11-18.73-53.8-6.72,21.63-12.81-39-5.92,3.52-13-47.85L742.6,552.57l6.3-71.65-10.62,7.79L760.14,423l-18.5,1.89c11.85-6.59,21.38-27.12,31.13-46.35l-18.64,7.93c9.45-13.57,21.75-27.44,39.48-43.07l-5.87-6.87c3.17-12,26.1-20.23,36.26-34.34l-29.06,4.57c14-18.94,45.61-49.11,45.87-59.94Z" transform="translate(-641.04 -238.06)"/><path class="cls-1" d="M987.21,275h16.94l5.3-16.94,5.29,16.94h16.94l-12.7,9.53,4.23,16.94-13.76-10.59-13.77,10.59,5.3-16.94Z" transform="translate(-641.04 -238.06)"/><path class="cls-1" d="M857.41,579c50.55,35,141.13,35,186.78-1.8,3.44,73.59-40.86,108.7-92.11,142.48C898.5,684.81,849,648.55,857.42,579Z" transform="translate(-641.04 -238.06)"/><path class="cls-2" d="M860.6,579.55c34.85-27.24,114.11-45,181-3C986.33,620.1,915,612.37,860.6,579.55Z" transform="translate(-641.04 -238.06)"/><path class="cls-3" d="M1001.4,577.19c-46.95-4.87-83-.94-116.46,14.39" transform="translate(-641.04 -238.06)"/><path class="cls-3" d="M985.72,586.26c-25.2-3.07-58,2.71-83.15,11.42" transform="translate(-641.04 -238.06)"/><path class="cls-3" d="M978.74,565.87C943,561.75,904.52,570.73,875,584.45" transform="translate(-641.04 -238.06)"/></g></svg>