<svg xmlns="http://www.w3.org/2000/svg" viewBox="0 0 837.52 675.26"><defs><style>.cls-1{fill:none;stroke:#75b2dd;stroke-miterlimit:10;}</style></defs><title>yap_shoreline</title><g id="kos_shoreline_190219_area"><polygon class="cls-1" points="739.97 181.44 740.1 181.38 740.7 181.15 740.93 181.72 741.97 184.35 742.27 184.29 742.71 185.29 743.27 185.44 743.36 185.66 745.93 184.72 746.07 184.99 743.21 186.19 743.08 186.51 743.33 187.34 753.7 212.6 754.29 213.22 754.49 213.43 755.62 213.82 756.5 213.88 757.52 213.94 757.58 213.95 757.86 214 758.26 214.06 758.59 214.26 761.16 215.78 763.11 216.48 764.1 216.94 765.23 217.52 766.67 218.07 767.44 218.37 769.27 218.95 771.48 218.98 774.56 218.28 777.85 217.64 780.29 217.15 782.21 216.83 784.94 216.97 788.37 218.07 790.95 219.06 792.52 220.34 793.83 221.16 794.24 221.36 795.85 221.65 799.18 221.41 802.17 220.81 804.92 220.31 806.35 220.22 807.37 220.29 808.17 220.89 808.31 221.05 809.64 222.36 810.55 223.63 811.47 225.14 812.31 227.7 813.36 229.99 813.38 230.02 813.89 230.97 814.29 232.89 814.48 234.3 814.55 234.55 814.84 234.78 815.13 234.92 815.3 234.91 815.68 234.9 816.27 234.82 816.83 234.61 817.46 234.5 818.1 234.54 818.42 234.69 818.55 235.06 818.52 235.44 818.37 236.04 818.34 236.12 818.33 236.39 818.32 236.75 818.26 236.81 818.23 236.85 818.15 236.94 817.66 237.02 817.61 237.11 817.59 237.14 817.66 237.29 818.33 237.62 818.45 237.91 818.49 238.29 818.26 239.35 817.68 240.5 817.57 241.11 817.6 241.38 817.73 241.49 817.78 241.49 818.01 241.49 818.27 241.41 818.71 241.08 819.2 240.57 819.83 239.61 820.19 239.32 820.74 238.94 821.11 238.93 821.53 239.06 821.84 239.46 821.9 239.55 822.38 240.53 822.55 241.34 823.05 241.97 823.12 241.96 823.41 241.9 823.64 241.85 823.79 241.85 823.84 241.9 823.99 242.15 823.91 242.7 823.2 244.63 823.13 244.82 822.36 247.55 821.92 250.47 821.82 251.51 821.05 253.19 820.9 253.61 820.88 253.87 820.66 254.34 820.6 254.5 820.21 254.98 819.67 255.35 819.52 255.41 819.52 255.41 819.09 255.57 818.25 255.85 817.1 256.12 816.83 256.17 816.14 256.27 815.61 256.29 815.28 256.34 814.47 256.47 813.51 256.58 813.22 256.61 812.12 256.73 811.16 256.85 809.59 257.51 807.81 258.21 805.4 258.73 803.13 258.97 801.3 258.88 799.95 258.56 799.93 258.55 799.31 257.99 798.48 257.55 797.55 257.1 796.19 256.44 795.28 255.77 795.01 255.23 794.58 254.4 794.3 253.85 793.9 253.19 793.39 252.66 792.88 252.1 792.23 251.63 791.12 251.43 790.34 251.43 789.83 251.57 789.34 251.65 788.81 251.57 788.32 251.41 785.41 251.16 784.17 251.11 783.82 251.34 783.57 251.62 783.23 252.05 782.89 252.22 782.64 252.26 782.31 252.2 781.87 251.95 781.52 251.48 781.25 251.25 780.45 250.44 780.26 250.15 780.24 249.91 780.21 249.79 780 249.9 779.12 248.77 779.25 248.63 779.18 248.44 778.14 247.25 777.44 246.48 777.51 246.22 777.03 245.3 776.46 244.59 775.64 243.77 774.86 243.19 774.77 243.27 774.33 242.96 774.37 242.88 774.22 242.75 773.47 242.24 772.66 241.95 772.29 242.46 770.51 241.43 770.88 240.79 770.61 240.59 770.19 240.46 769.84 240.44 769.47 240.32 768.82 239.9 768.71 239.72 768.71 239.48 768.66 239.42 768.45 239.36 768.25 239.44 766.98 238.77 765.47 238.18 764.87 237.63 764.49 238.02 763.22 236.94 762.45 236.29 761.95 235.38 761.64 234.95 760.95 234.33 759.97 233.7 758.71 232.93 758.31 232.55 758.29 232.25 757.47 231.53 756.71 232.11 756.53 233.27 755.42 233.12 754.71 232.94 754.46 232.31 754.51 231.69 754.17 231.66 754.11 231.65 753.95 231.58 753.89 231.38 753.73 231.07 753.69 231.06 753.51 231.03 753.02 231.09 752.04 231.27 749.1 231.63 746.1 231.83 745.41 231.67 745.03 231.36 744.59 230.69 744.24 230.01 744.02 230.01 743.81 230.05 743.47 230.16 742.95 230.42 742.49 230.53 742.22 230.5 741.81 230.16 741.62 229.7 741.46 229.07 741.04 228.08 740.93 227.85 741.48 227.32 742.91 225.85 744.24 224.32 744.41 224.13 744.34 223.79 744.34 223.27 744.98 222.63 745.06 222.25 744.79 221.9 744.73 221.83 745.47 221.07 746.01 220.64 746.28 220.35 746.79 219.82 746.92 219.69 747.12 219.69 747.28 219.94 747.59 220.08 748.02 219.84 748.43 219.47 748.66 219.14 748.81 218.77 748.77 218.57 748.59 218.38 748.5 218.12 748.8 217.84 749.14 217.52 749.49 217.24 749.47 217.2 749.76 216.93 749.8 216.97 749.88 217.05 751.49 215.4 751.56 215.37 751.56 215.33 752.55 214.31 752.72 214.14 752.88 213.97 753.35 213.47 753.19 213.08 749.89 205.21 749.17 205.32 748.9 205.36 748.15 205.47 747.7 205.53 747.52 205.46 747.42 205.23 747.52 205 748.12 204.92 748.57 204.86 748.95 204.81 749.46 204.75 749.65 204.68 748.5 202.15 748.12 201.47 747.93 201.47 746.16 202.42 745.34 202.54 743.18 203.3 741.32 203.67 740.16 204 739.47 204.35 738.19 205.29 737.25 206.24 737.59 206.67 737.06 207.24 736.35 207.96 735.95 207.69 734.97 208.89 734.56 209.98 734.25 210.53 734.04 210.88 733.75 211.26 733.1 211.84 731.27 213.31 728.31 215.68 727.84 216.07 727.52 216.11 727.31 216.06 726.95 215.78 724.82 213.48 724.01 212.34 723.75 211.7 723.62 211.18 723.61 210.96 723.59 210.7 723.67 210.37 724.23 209.67 726.05 207.91 726.58 207.62 727.08 207.61 727.58 207.75 728.28 208.35 728.52 208.61 728.53 208.81 728.52 208.95 728.31 209.08 728.31 209.08 728.04 209.11 727.9 209.05 727.72 208.91 727.38 208.67 726.8 208.51 726.6 208.54 726.3 208.76 724.48 210.32 724.37 210.7 724.45 211.11 724.73 211.8 725.68 213.08 726.72 214.48 726.97 214.74 727.16 214.79 727.41 214.81 727.76 214.77 728.95 214.03 731.4 212.08 731.46 212.03 732.25 211.4 732.31 211.16 732.28 211 731.69 210.47 731.48 210.37 731.4 210.37 731.14 210.57 730.81 210.98 730.71 211.09 730.52 211.3 729.96 211.83 729.13 212.81 728.49 213.38 728.03 213.79 728.03 213.79 727.92 213.78 727.76 213.68 727.44 213.28 727.36 213.04 727.46 212.78 727.58 212.63 727.72 212.57 727.88 212.59 727.97 212.66 728.1 212.76 728.36 212.77 728.64 212.62 729.09 212.28 730.53 210.69 730.89 210.29 730.92 210.09 730.89 209.99 730.78 209.84 729.72 208.99 729.44 208.76 731.01 206.73 733.47 203.87 734.2 204.51 733.74 205.02 731.83 207.13 731.98 207.34 732.02 207.38 732.32 207.75 733.07 208.42 733.27 208.49 733.49 208.39 735.99 205.82 736.34 205.47 736.92 204.86 737.14 204.64 736.59 203.94 736.36 203.66 736.6 203.38 736.9 203.68 737.04 203.59 737.42 203.23 737.81 203.59 737.88 203.57 738.03 203.57 738.92 202.72 741.38 200.38 743.52 198.14 743.45 197.99 743.83 197.54 744 197.63 745.22 196.07 745.79 195.34 743.05 188.62 742.92 188.31 742.25 186.9 739.97 181.44"/><polygon class="cls-1" points="751.06 572.33 751.3 572.23 751.49 572.2 751.65 572.26 751.72 572.43 751.53 572.89 751.23 573.35 750.97 573.69 750.68 574.17 750.44 574.54 750.22 574.95 749.97 575.38 749.6 575.68 749.25 575.71 749.06 575.62 748.98 575.41 749.06 575.11 749.25 574.66 750.22 573.03 751.06 572.33"/><polygon class="cls-1" points="738.07 185.93 737.89 186.23 737.66 186.38 737.33 186.41 737.05 186.45 736.6 186.41 736.26 186.18 735.86 186.07 735.38 186.3 735.29 186.34 734.61 186.74 734.13 186.9 733.91 186.96 733.69 186.98 733.34 186.94 732.94 186.8 732.64 186.53 732.44 186.32 732.17 185.85 732.06 185.41 732 184.91 731.99 184.27 732.12 183.69 732.13 183.65 732.22 183.22 732.24 182.67 732.3 182.29 732.51 181.8 732.82 181.36 733.26 181.06 733.48 180.98 733.79 180.95 735.24 181.5 736.24 182.04 736.64 182.33 736.83 182.55 737.06 182.79 737.09 182.86 737.26 183.22 737.44 183.91 737.49 184.18 737.96 185.16 738.07 185.59 738.07 185.82 738.07 185.93"/><polygon class="cls-1" points="741.45 127.92 741.41 127.92 741.01 127.7 740.97 127.41 740.97 127.34 741.01 126.6 741.48 125.39 741.85 124.78 742.47 124.32 743.41 124.54 743.92 125.27 743.91 125.41 743.88 125.96 743.58 126.08 742.68 126.43 742.14 127.45 741.77 127.88 741.51 127.91 741.45 127.92"/><polygon class="cls-1" points="744.05 133.85 743.77 134.22 743.47 134.19 743.05 134.02 742.78 133.73 742.69 133.62 742.61 133.1 742.86 132.74 742.89 132.68 742.92 132.64 743.01 132.32 742.98 130.41 742.7 129.76 742.46 129.19 742.36 128.96 742.21 128.68 742.25 128.41 742.46 128.23 742.63 128.08 744.45 127.47 744.77 127.43 745.26 127.52 745.43 127.56 746.01 128.23 746.04 128.34 746.21 128.85 746.19 130.43 746.05 130.77 745.96 131.03 745.39 131.43 744.63 133.04 744.05 133.85"/><polygon class="cls-1" points="741.61 134.22 741.16 134.26 740.78 133.99 740.41 133.33 740.41 133.29 740.27 131.9 740.27 131.85 740.34 130.88 740.49 130.66 740.71 130.32 741.14 130.15 741.72 130.25 742.08 130.55 742.22 131.71 742.19 132.06 742.05 133.05 742.02 133.31 741.96 133.73 741.61 134.22"/><polygon class="cls-1" points="732.81 157.11 732.45 157.19 732.23 157.07 732.05 156.8 731.98 156.65 731.89 156.46 731.9 155.68 732.1 155.38 733.12 153.99 733.24 153.96 733.4 153.99 733.52 154.13 733.62 154.44 733.76 154.95 733.73 155.9 733.72 155.91 733.38 156.67 732.81 157.11"/><polygon class="cls-1" points="718.23 205.96 717.83 206.45 717.19 206.81 716.76 207.01 716.27 206.99 715.81 206.83 715.3 206.68 714.77 206.13 714.72 206.08 714.67 205.63 714.76 205.19 715 204.7 715.23 204.49 715.49 204.52 715.7 204.72 715.85 205.14 716.07 205.81 716.19 206.1 716.39 206.25 716.72 206.3 716.96 206.21 717.21 206.05 717.28 205.56 717.28 205.37 717.27 204.99 717.18 204.61 717.14 204.41 717.07 203.99 717.3 203.76 717.54 203.74 717.72 203.79 717.88 203.94 718.01 204.23 718.19 204.79 718.45 205.39 718.46 205.66 718.39 205.75 718.23 205.96"/><polygon class="cls-1" points="744.06 215.28 742.99 215.84 742.23 215.84 741.46 215.01 740.79 213.45 740.46 212.26 740.32 211.75 740.3 211 740.27 210.33 740.67 209.19 741.51 208.52 742.51 208.29 743.86 207.73 744.44 206.73 745.11 206.01 745.74 205.78 745.72 205.75 746.34 206.17 746.74 207.13 747.11 208.38 747.21 208.87 747.6 210.84 747.39 212.63 746.76 213.38 745.92 213.98 744.06 215.28"/><polygon class="cls-1" points="817.08 220.88 818.7 221.18 820.24 221.14 821.02 221.38 821.05 221.39 821.8 221.62 821.87 221.68 822.97 222.78 824.35 225.43 824.86 227.28 824.46 228.63 823.4 229.72 822.46 230.92 822.17 231.39 822.04 232.33 822.07 232.98 822.07 233.17 821.75 233.69 821.51 233.85 820.91 234.24 819.99 234.69 819.67 234.63 819.41 234.58 819.23 234.55 818.97 234.08 819.08 233.39 819.34 232.81 819.89 232.48 820 232.41 820 232.11 819.96 232.07 819.83 231.94 819.49 231.78 818.94 231.67 818.91 231.67 818.88 231.68 818.6 231.71 818.29 231.83 818.09 232.18 817.87 232.61 817.74 232.85 817.45 233.18 816.96 233.32 815.98 233.21 815.58 232.79 815.51 232.72 815.42 232.35 815.35 232.01 815.4 231.32 815.61 230.48 815.64 230.37 815.67 230.24 815.79 229.94 816.29 228.23 817.08 227.56 818.18 227.45 818.88 227.38 820 227.3 821.07 227.18 821.9 227.53 822.52 228.09 822.99 228.58 823.34 228.71 823.43 228.65 823.49 228.6 823.53 228.33 823.6 227.78 823.58 227.13 822.38 227.1 822.28 227.06 822.13 226.63 822.18 226.25 822.2 226.08 822.22 225.96 822.31 225.84 822.38 225.75 822.48 225.61 822.77 225.06 822.72 224.89 822.7 224.84 822.65 224.68 822.58 224.63 822.34 224.45 822.13 224.45 821.99 224.45 821.4 224.51 820.88 224.33 820.48 223.87 820.1 223.29 819.23 222.82 818.3 222.5 817.9 222.5 816.99 222.55 816.89 222.56 816.32 222.62 815.7 222.56 815.25 222.46 814.52 222.37 814.05 222.15 813.76 221.71 813.57 221.29 813.32 221.04 812.92 221.09 812.67 221.38 812.43 221.8 812.07 221.89 811.81 221.88 811.67 221.66 811.74 221.33 812.09 220.86 812.54 220.55 813.57 220.17 814.72 219.82 814.74 219.83 815.43 219.97 816.05 220.29 816.39 220.46 817.08 220.88"/><polygon class="cls-1" points="822.03 237.49 821.89 237.53 821.77 237.5 821.76 237.49 821.42 237.22 821.36 237.1 821.36 237.09 821.36 236.77 821.37 235.96 821.44 235.78 821.54 235.54 821.58 235.48 821.82 235.4 821.98 235.35 822.91 235.38 822.97 235.38 823.28 235.44 823.48 235.59 823.54 235.75 823.52 236.02 823.41 236.21 823.29 236.31 823.18 236.42 822.75 236.81 822.5 237.11 822.23 237.39 822.2 237.41 822.03 237.49"/><polygon class="cls-1" points="819.98 237.72 819.61 237.74 819.28 237.68 819.16 237.56 819.14 237.53 819.06 237.46 818.87 237.2 818.86 237.14 818.81 236.96 818.81 236.79 818.81 236.61 818.92 236.4 818.99 236.36 819.23 236.24 819.7 236.23 819.96 236.28 820.21 236.44 820.4 236.71 820.4 237.38 820.3 237.5 820.25 237.56 819.98 237.72"/><path class="cls-1" d="M895.52,770l-.44,1.38,0,.72-.95,2.22-.4,1.38.11.51.23.83.65.44.69.18.65.47.36.24.19.13.36.47.15.65-.47.61-.3.37-.9,1.53-.44.94-.14,1.13,0,.73-.22.58-.4.47-.47.76-.18.62-.36.69-.51.44-1.13.4-.69.69-2.29,2.61-1.6,1.75-1.74,2L881,798.15l-3.12.25-3.49,1-7,4.19L858,808.74l-9.36,4.65-.26.08-1.63.71-.9.26-1.57.2-2.26.09-2.88.17-2.09.27-5,.55-.45.06-1.81.14-1.5.14-.73-.14-.48-.27-.16-.26-.09-.16,0-.05-.18-.62v-.18l.15-.27.28-.2.39-.07.35,0H828l.25.22.23.6.39.24.51,0,.58-.16.57-.25.64-.34.77-.17.3,0,1.42-.17.22,0,.42,0,.48,0,1.48-.12,1.36,0,1.82-.2,1.51-.54,1.69-1.19,1.54-1,.8-.08,1.33,0,.58-.11.64-.27.8-.66.7-.74,1.67-.46.68-.63.4-.53.09-.55.16-.3,2.1-1.11,1.54.24.23.24.4.38h.09l.29.05.46.07.87-.2,3.18-1.91,1.5-.63L864,803l.23-.18-.07-.08,0-.05-.89.07-1.09-.11-.93-.38-.16-3.12.51-1.49.26-.4,2.61-.36H865l.49,0,1,.17.59,0,.24-.1,3.05-1.39,4-2,.47-.66.91-1,.25-1.16v-.38l-.25-.27-.37-.44-.09-.1-.24-.64-.1-.7.09-.48.07-.86-.18-1.76.14-.89.26-.66,0-.06.22-.32h0l.42-.15.38.12.53.28h0l.85.15.8,0,.78-.12,1.4-.63,2.21-.73.08-.05,3-2,.48-.33.35-.22.62-.21.71-1.24,0-1.4L887.9,775l0-.43.11-.13.25-.32.64-.41.11,0,.69-.05.47.17.32,0,.16-.08.16-.09.08-.2.06-.32.26-1,.7-.93.76-.52.75-.21.58.09,0,0,.2-.17,0-.3,0-.09-.09-.37,0-.55.32-.7.27-.38.25-.35v-.1l0-.68-.12-.38-.34-.29-.41-.2-.38-.06-.46-.15-.27-.29-.11-.35.26-.26.73,0,1.19.64.88.93.12.48.2.79-.18,1Zm222.17-561.21,2.14.22,2.21.22,1.35.22,4.12.67,1.71.43.63.16.7.18,3.9.78.65.13.74.43.47.44.41.12.74.22,1.61.11h1l3.65-.45h1.85l2.31.07,4.18-.27.45-.1.53-.11,1.2-.26,3-1.2,1.39-.52,2.55-.54,6.64-1.31,4.82-.63,3.17-.36,1.5-.16,2-.23,4.44-.28,4.11.07H1194l1.39.33,1.48,0,4.47.7,2,.56.74.2.51.07.57,0,.54.26.71.29,1.61.24,1.12,0,1-.22.29-.18.16-.21-.1-.38v-.18l-.08-.22-.13-.31-.16-.33-.07-.29.06-.19.09-.15h.4l.16.12.06.25.19.45.13.23.36.22.74.24,1,.44,1,.6.48.41.35.35.22.08.24,0,.34,0,.72,0h.19l1,.17,2.87.61.62,0,.64,0h.44l.58.12,5.8,3.38.91.68.55.54.43.79,4.33,8.48.51.76.52.41.19.23.2.48.29.48.7,1.73,1,1.57.8,1.11.16.23.19.57.1.32.26,1.29.16,1.89.14.8.13.35.21.13h.16l.16-.08.29-.11h.38l.18.07.41,1.34,1,1.8.18.67-.12.73.05.21.09.43.18,2.38,0,3.31v.07l-.28,2.13.07,2.65,0,.56.2,2.74-.09,2.57v.73l-.38,3.55-.88,6-.64,3.27-.78,3.56-.62,4.39-.47,6.65,0,2.9.41,2.76.11.68.6,3.05,1.35,7.78.7,2.44.72,2.91,1.14,4.62.27,1.67,1.14,7.08,1.33,4.78.9,2.39.22.77.27,1.52,1.09,4.61,0,.06,0,.16,0,.09.08.84,0,.52-.07.32,0,0-.15.22,0,.06-.14.12-.73.29-.61-.07-.73-.15h-.58l-2.67,1.53-6.32,7.77-4.85,5.91-.52.56-.8,1-.07.65.11.4.26.33.36.29h.58l.51.33.36.94-.25,1.6-.51,1.16-.24.28-.2.23-.43,0-.18-.14-.21-.06h-.26l-.42.24-.15.33,0,.32.09.16,0,.07.2,0h.47l.55.07.33.31.19.57-.19.65-.13.41.1.4.15.64-.06,1.27-.34.73-.51.58-.27.3-.24.26-.2.75,0,5.76,0,1-.16,1.21,0,.43-.66,2-.45,1.63-.12,1.1,0,.39-.6.23-.13.05-.26,0-.23,0-.09,0-1.28,0-.58-.11-.26-.12-1.47-.72-.65-.32-1.1-.54-1.73-.29-2.6,0,0-.31-.07-.47.29-.64.29-.6.09-.14.66-1,1.25-1.48.61-1,.29-2.29.11-1.1,0-1.67v-.91l.62-2.69,1.32-3.86.18-.54.52-1.27.14-1.09-.14-1v-1.44l.27-1.09.3-1.31v-1l.13-1,.48-1,.87-1.09,2.24-1.79.11-.13.13-.08,1.4-1.53.74-1.48.16-.84.14-.92.48-3.88,0-1.63,1.11-2,1.16-1.8.82-.82.63-1.33.12-1.52-.33-1.18-.16-.56-.69-.78-.4-.7v-.06l0-.77.75-.75.21-.21,0,0,2.67-1.52,1.12-.49.63.05.67.1.22.2.86,1,1.2,1.48.74.58.19,0,.21-.2,0,0,.05-.65-.17-1.38-.33-1.51-.48-.7-.94-1.14-.5-.61-.6-.33-.37-.35h0l0,0-.07-.24,0-.14h0l0-.23,0-.11.11-.32h0l.33-.65.19-.3h0v0l0-.27V319l-.16-.76-.5-2-.14-.73,0-.63,0-2.8-.06-.27,0-.11-.29-.22-.79-.26-.24-.08-.31-.08-.07.18v.17l.09.25.2.35v0l.23.49,0,.25,0,.31,0,.58-.06.56-.07.6-.14.35-.33.69-.21.49v.67l0,.1.09.26.35.55.22.53v.43l0,.14,0,.22v0l-.26.37-.11.36,0,.67h0v.21l.06.58.21.84v.07l0,.36-.11.33-.11.31-.32.62-.17.14-1.06.87-1,.9-1.62.92-.56-.13-.7-.7-.44-1.22v-1.44l.43-1.62.11-.43.31-.73.25-.58,0-.16.08-.95.08-.85-.06-.17-.37-.78-.26-.33-.8-.69-.32-.44v-.74l.05-.41,0-.4.08-.16.45-.73.08-.14.16-.43.07-.71,0-.78-.17-.63,0-.08-.12-.26-.08-.16-.12-.08-.25-.16-.52-.34-.22-.1-.49-.24,0,0,0,.05-.17.15,0,0v.22l.08.14.12.19.15.18.36.42.42.68,0,.77-.2.44-.06.08-.29.43,0,.23-.08.35-.13.61-.16,1.21.06.34.21.74.08.12.07.1.24.35.72.82.07.66-.39.07-.28,0-.36-.08-.36-.23-.46-.46-.47-.85-.27-.42v-.19l-.08-1.35-.05-2.2-.06-.51-1-1.5-1-.56-1.16-.31-.4-.41-.51-.62-.11-.34v-.82l0-.05.22-.53.14-.36.29-1,.23-3.12.38-3.05.25-.87.12-.44,1-1h0l.37-.66-.09-1.33-.11-1.28-.5-1.16-1.48-1.14-1.18-.33-.92-.19-.72-.37-.77-1.43-.28-1.57.24-3.13.35-1.49.29-1,.87-.9.64-1,.46-1.77-.11-1.08-.53-.9-.61-2.09-.11-1.4-.58.76v1.1l-.09.9.35.53.38.81.29.61.2.32v.44l-.47.9-.72.81-.82,1-.4,1-.26,1.25-.38,1.65-.26,1.37,0,1.16.11.56.16.89.58,1.46.83,1.21.39.26,1.56,1.06.38.26.77.53.32.36.29.76-.11,1-.4,1.56-.31,3.41-.38,2.2-.21,1.28-.3.95-.14.39-.06.17-.27.73v.05l.06,1.24v.3l.25.62.24.6.74.75.59.57,1.49.76.25.3.2.45.05.35.06.51.09,1.2,0,2.52-.26.47-.23.4-.49.67-.48.87-.15.57,0,.15.07.66.16.31.42.81.82.67.57.46,1.11.9.25.92-.27,1.82-1.26,2.49-.83,2.25-.44,2-.23,1.62-.06,1.41.26.64.61,1.72.08.21,0,2.51.33,1.25.32.64V344l0,.05-.26.5-.85.64-.75.76-1.45,1.57-1.17,1.16-1.33.84-.9.35-.47.06-.23-.23-.09-.79-.06-.44-.32-.72h-.46l-.52,1.36-.24,1.15-.06.25-.1.23-.39.9-1.07,1.31-1.84,1.74-.17.59V356l.44,0,.17,1.37.07.26.5,1.89.27,1.18.72,1.83v.24l-.2,2.85-1.09,2.47-1,2.63-.78,3.14v1.37l0,2.18.13,1.61.18.52.23.68.53.92.37.11.32.08.33,1.09-.23.18-.44.35-.29.8v.61l.11.66.31.37.3.5,0,.27.07.49-.05.36-.08.61-.29.61-.07.15,0,.73.06.72v.23l-.66,1.56-.47.74-3.49,2.91-2.15.75-5.06,1.16-.57.45-.47.37-.08.21-.87,2.28.13,1.63.7.41.64-.12.81-.11.47.29.35.58-.1,1.1-.14.27-.73.87-.42.49-1.57,1.58-.18.54,0,0-.09.38,0,.18.14.49.17.44.29.72.49.91,0,.24.08.43-.07,1.26.32,1,.66,2.71.11,2.75v.91l-.43.84-.12,1,.41.93.14,2-.17,1.19-.45,1.57v0l-.24.46-.85.83,0,0-.93,1.25,0,.31,0,.12.21,1.4.34,1.44v.42l-.07,2.09v.38l-.2.55-.76.78-.09.09-1.16.44-1.13.72-1.11,1-.93.56-1.86.37-.19.07-.85.28-1.46,0h-.37l-.15,0-.09.56.09.34.38.3.44.11,1.77.47,2.81.57.35.06,1.95,1.19-.18,1.19-.31,1.28-.47,1.95-.7,1.54-.16,1.32.28.46.91-.09,1.18-.76,1.26,1.16,1.67.95,2.49.47,1.35.83.25.71-1.46,1.95-.4.55-.81.28-.7.42.26.39.94.11,2-.14h1.27l.69.25.76.8.26.4.09.45.09.39.25,1,0,.1.12.33.11.82,0,.72-.08,1.76-.22.57-.65.87-.4,1.48-.28.51-.63.3-.52,0-.26,0-.15.11-3.47,5-1.34,3.45-.74.53-.63.37-.78.4-.11.41.28.45.37,0,1.34-.14.38.09,0,0,1,.65.73,1,.34.54.42.68.32,1.07v2.18l.11.16.15.22.78.17.53.38.75.76v0l.4.88.29.72.32.32.83.24.21.05,1.6.67.85.5.4.49.06.18.15.52.23.38.29.35h0L1217,494l.67.07.59.07.58.14,1.72.41.13.16.86,1.06.4.5,1.34.72,1.16.32.41.11,1.19.31.73.14h1.1l.37.15.39.15,2,1.33,1.37,1,1.22,1L1234,503l.81,2.32.39,1v1.11l-.75,1.21.54.64.44.85,1.52.11.29.12.28.11.56.24.71.06.45.12.57.15.56.46.63.94.31,1.13-.15.37-.29.28,0,.11,0,.07v0l0,.52.76.8.38.15.23.34.83,1.47.16.06.07,0,.23.09.21-.11.12-.06.06,0-.13-.35-.06-.46.17-.3.33-.57.52-.11,1.34.32,1.08.52.81,1.66.58.35,1.86.05,1.28-.32,1.39-.94.29-.2.61-.11.58-.35.42-.3.41-.13.39,0,.31.15.12,0,.23-.06.34-.09.46.14,1,.49.52-.2.2-.61.06-.55.44-.44.38-.09h.46l.44-.06.58-.43.13-.14.68-.7.12-.82,0-.65,0-.39.23-.85.67-1,.26-.44.75-.17,1.13-.2.76-.35,1.42-.89.14-.26.19-.33-.16-.76-.59-.63-.59-.66-.3-.34.34-.53.74-.81,1.9-.38.35-.11,1.46-.5.79-.25,1.92-.48,2.59-1,3.34-1.74,4.29-1.62,3.16-1,3-.17,2.36.22,1.61.89,1.44.79,3.71,1.54,1.52.92,3.32,2.2,1.3.92,1.16,1.83,2.35,3.53,1.66,2.77,1,1.76,1.9,3.27.43.81.44.19.2-.08.19-.26.15-.37.24-.37.35,0,.37.31.24.35,0,.34,0,.46,0,.52-.11,1.77.17.79.39.17.92-.09.59,0,.74.11,1.22.32,1.24.76.44.51,0,.41-.24.63-.12.74-.06.41-.18,1.66-.36,1.9-.22.9v.76l.07.43.15.79-.11.48-.13.23-.56.49-.54.29-.64.24-.61.13-.42.07-.41.25-.33.45-.58.49-.77.29-.7.41,0,.22.31-.06,2-.38,1.94-.46.83-.32.29-.35.29-.79.73-.91.23-.57-.1-.62-.17-1.25-.09-.95.33-1.26.51-1.5.19-.91,0-.08.17-.36.32-.32.45-.26h.48l.85.13.59.12,1,.52.19.54v.6l0,.08-.24.53-.43,1.07,0,.87.23.5.32.4.06,1.07-.23,2.36-.09,3.08,0,1,0,.79-.2,1.34-.43.72-.82,3-1,3.37-.58,3.08-.29,2.06-.78,2.59-2,7.83-.76,4.25-1.45,7.49-1.71,7.81-.67,2.09-.64,1-.47,1-1.39,5.49-.81,3.18-2.45,6.63-3.25,6.95-5.38,10.27-1.89,3.17-.14,1,.26.56.23.35v.06l0,.59h0l-.78,1.72-.85,1.19-.32.47v.58l.12.43.26.38,0,.61-.1.14-.57.76-.16.21-.74,1-.53.86-.22.36-.66,2-.34.61-.52,1.65,0,2.05-.06,1.31-.63,19.39-.5,5.68-.47,5.08-.4,2.69-.66,2-1.74,4.47-.69,1.8,0,.42h.22l.24-.24.27-.31.31-.25h.25l0,.29,0,.22-.24.56-.38.38-.76.93,0,0-.67.75v.43l-.49.91-.31.58-.62.86-1,1.61-.43,1.48-.74,1.86-.62.91-1.2.82-.48.53v.31l.06.12h0l.22,0,.21-.07.3-.08.3.06.15.18,0,.22-.1.27-.23.24-.4.31-.2.06-.27.08-.55,0-.22.23-.4.5-.65.28-.51.11h-.54l-.55.09-.43.31-.33.43-.4.29,0,0-.46.36-.27,0,0-.19.06-.31.29-.23.18-.18v-.6l0-.27-.44-.13-.6.22-1,.54-1.85,1.71-2.22,3.87-.47,1.07-.87,2.83-.35,2.47-.22,1.07-.42.55-.1.29.2.13.25.27,0,.27-.22.31-.44.44-.34.43-.17.55-2,7.23-1.24,3.66-2,4.73-1.91,4-4.78,8.59-2.79,5.46-2.21,4.89-2.5,4.65-2.64,5.6-3.45,6.54-2.09,2.73-3,3.58-1.43,1.4h0l-1,1-.07.26.07.12.29,0,.48-.09.42.06.59.36.3.27.25.22.07.22,0,.22-.24.29-.26.16-.1,0-.28.45-.23.64-.71,1.33-.74.85-.45.46-.16.16-1.41.57-1.94.48-.74.24-.75.28-.61.52-.47.55-.59.48-.59,0-.53-.13-.61-.22-.85-.13-1.06.33-.77.48-.58.24-.92-.09-.92-.07-1.33.83-2,1.81-1,.83-6.1,5.53-6.76,6.89-5.14,5.89-4.4,5.32-3.84,4.14-3.88,4.66-4.88,6.58-.37.35-1.18,2.1-3.49,5.62-2,2.79-3.35,3.49-4,3.83-3.49,2.88-3.36,2.31-8,5.06-7.46,4.84-8.67,5.36-5.93,3.35-5.32,2.14-6.06,2.4-4.1.87-3.48-.13-2.36-.61-2-1.26-1.52-1-1.61-.57-3.58,0-13-.13-7.11-.09-3.49-.39-3.4-1.49-3.14-2.13L1068.2,868l-1.61-.82-2.74-.57-3.62-.13-4.36-.39-4.62-.14-6,.27-2.75-.13-5.5-.32-1.45-.32-2.47-.82-1.66-.84-1.3-.89-2-1.35-2-1.41L1023,856.8l-.35-.37-1.08-1-.35-.64-.26-.46-1.62-3-.79-1.17-.9-1-.58-.42-1.63-1.18-4-3-5.19-4.78-3.57-3.26-.46-.37-2.71-1.79-.79-.61-1-.73-1.32-1.28-.71-.36-.38-.18-1.45-.4-2.06-1.11-3-2-1.73-.81-1.85-1-2.2-1.55-1.67-1.86-.7-1.16-1.16-.61-3.25-1.36-2.61-.93-3.44-1.68-6-2.32L961,812.63,958.38,811l-2.06-1.26-.53-.26-1-.14-1.16-.26-1-.52-.28-.38-.14-.19,0-.07,0,0-.05-.11-.09-.2,0-.09v0l-.06-.17v-.38l.46-.58.71-.49.16-.18.56-.82.19-.08.24-.33.59-1.32.78-.71,1.18-.85,1.68-.9.25-.1,1.3-1.72.46-1.07,1.26-1.07,1.25-1,.25-.2.15-.28,0-.31-.2-.17-.28-.08-.09,0-4.59-.2h-.12l-.14,0-1.41.5-.89.32-.31.08-.27,0-.18-.07-.17-.2-.09-.2,0-.33,0-.33v-.1l0-.51-.09-.48-.29-.74-.14-.33-.11-.47-.26-.82-.31-1.14-.09-.78.19-.09.16.36,1.29,4.78,0,.17.08.28,0,.13.06.18.11.2.23.07.22,0,.29-.09.67-.3.37-.19.8-.18,4.34.15.09-.11V794l.07-2.86-.07-.4-.17-.16-.56-.24-.25-.18h-.84l-.6-.16-.53-.66-.23-.47-.24-.76-.09-.91v-.74l.38-.88.18-.08.46-.22.71-.24.69-.07.4,0,.31-.18.14-.28,0-.45-.15,0v-.05l.26-1.45.24-.37.24-.32.31-.57.38-2.67h-.15l0-.22h.15l.12-1.16.15-.54v-.07l0-.26,0-.27,0-.47.27-.42.33-.27.07-.06.29-.27.09-.33-.13-.35-.07-.19,0-.31,0-.42v-.34l0-.2.24-.17.26-.27.32-.33.22-.38.11-.49,0-.78,0-1,2.76,0,.93,1,1.29,1.36.45.47,1,1.18.45.35.22,0,.27.06.17.25.07.42-.05.38-.08.31,0,.24,0,.16-.4.54-.36.37-.31.32-.31.06-.24-.07-.56-.24-.07,0-.64-.23-.38,0-.11.2h0l.11.49.17.22.14.22.22.44.4.21.23-.05.48-.33.7-.11.53.09.38.31.18.4.15.37.18.5.13.53.09.64,0,.69.39.61,1.22.39,1.05,0,1.17-.35.29-.4,0,0V779.5l-.3-.84v0l-.3-.87.19-.47.16-.4,1-.35h.44l.91.13.4.33.07.87-.07,1.24-.33,1-.15,1.05.29-.18.77-1,.25-.76.11-1.24.4-.83.76-.29,1,.32,1.27,1.42,1.67,2.18,1.9,1.32.37.28.54.35,1.62,2.72.72.92.24.29.61.69,1.15.71h1.38l.16,0,1.42-.16.86.52.15.21.18,1.08,0,3.81-.12,1.66,0,.71.52,2.17,1.22,1.33.32.34.4.42,1,.63.76.46,2.11.94,2.09.7,1.85.78,1.45,1,1.54,1.71,2,2.06,2.81,1.6.73.9.89,1.12.95,3.82.22.54.22.55.91.81,1.2,1,1.27.93.49.52,0,.13.12.62.17.91.35.69.83.85,1.05.73,1.46,1.19.64,1,.24.61.35.9.14.24.44-.67.23-.61-.29-.7-.79-1-.68-.78-.36-.41-1.89-1.42-.44-.64-.24-.66-.6-1.61-.53-.93-.25-.43h0l-.06,0-1.68-1-.7-.58-.16-.23-.62-.85-.18-.52-.34-1-.21-1.09-.11-.63-.58-.88-.81-1.1-.69-.69-1.32-1.24-3-2.44-2.4-2.4-.88-.62-3.18-1.44-2.66-1.43-2.26-1.43-.3-.29-.82-.77-.54-.78-.35-.94.13-1.17.26-1.83.16-1.63-.14-1.27-.17-1.49-.83-4.09-.74-.75-1.21-.94-1-1.27-.22-.69-.11-.06-.18-.09h-.58l-.58.26-1,.07h-1.2l-1,0-.82-.21-.59-.15-.94-.82-.52-.46-.57-1.8-.43-.43-2.36-2.14L983,774l-.14-.87.29-.95.58-.9.83-.77.11-.11,1.71-.5,3.35,0,3.3.28,1.16-.44.24-.78v-1.28l.52-.81.93-.41,2.21-.29,1.3-.06.65-.43.15-.73,0-.87-.33-.87-1-1-.54-.18.07.61.22.51.36.73,0,.94-.77.33-.94-.06-1.86.11-1.22.64-.53,1.45-.34,1.28-.76.47-.93-.12-4.81-.34-2,.49-.62.3-1.26,1.33-1.48,1.85-.19.22-.4.48-.83.28-.39-.2,0-.39.26-.94,0-.52-.31.09-.15,0-.06.41v0l-.2.85-.63.59-.46.13-.33.28-.72,0-.65-.13-.7-.3-.59-.22-.47.18-.4.19-.37-.61.53-.38.19-.14.23-.34.19-.29-.35-1-.7-.92-.7-2.13v-1.62l.13-.87-.49-.34-.07,0-1.75-.35-.14-.09L970,764l-.3-.61v-.62l0-.09-.17-.34-.87.09L968,763l-1.15.82L963,766.23l-2.18,1.31-.09-.07-1.07-.76-.3-.77-.31-.21-.3.06h0l-.1.28,0,.45-.17.7-.39.59-.64.26-1.37.55-.27.09-1.43.52-2.57-.07L950.8,769l-.53-.08-.23-.33-.13-.32,0-.24,0-.24.15-1-.06-.08,0-.05-.3,0-.59.25-.35.15-.3.53h0l-.79,1.57-.26.2-.28.21-.7.2-.83.07-.3-.1h0l-.31-.1-1.06-.41-.79-.66-.57-1.05-.17-.78.48-.89.21-.53.1-.26,0-1.09-.17-1-.57-1.22-1-.83-1.18-.52H938.6l-1.31.21-1,1-.44.83-.31.87-.78,1-.92.44-.69,0-.79.05-1-.34-.44-.15-.45-.45-.77-1.42-.38-.74-.36-.7-.82-.85L928,760l-.63-.47-.12-.35v-2.07l.25-.86,1.4-3.2,1.3-1.11,0-.24-.38-.47-.78-1.15h0l-.61-.41-.1-.06-.44-.11-.54,0H927l-.21-.08-2.13-1-.23-.35-1.33-1.75-.44-.65-.25-1,.09-1.22.3-1.21.1-.51.14-.33.24-.75.31-.18.27-.3,0-.39-.35-.24-.38-.27-.34-.71,0-.12-.35-.95-.43-.31-.21-.15-.83-.51-.5-.36-.29-.94-.15-.61,0-.08-.27-.49-.45,0-.22.13-.11.2-.17.93-.1,1.72.19,1.84v0l-.31.09-.46-.07-1.52-.78-.69-.4-3,.2-.25,0-1,.6.12.71.15.36.21.22.87.13.86.09.91.13.49.2.23.27.06.33-.06.27-.67.2-.65.13-.73,0-4-.46-1.44-.19-3.31-.3h-.87l-.74.21-.76.1h-.74l-.22-.12-1.85-1.07,0,0-.39-.35-.46-.86-.24-.45-.62-1.28-.12-.26,0,0-.41-1.21,0-.12-.2-.22-.2,0-.15,0-.69.18-1.63.33h0l-.4,0-.63-.05-.42,0-.19.14-.11.08-.22.47-.2.35-.15.06-.14.06h-.53l-1.34-.1-.88.36-.14,0-.11.1-.13.12-.47.42-1.32,1.78-1.48,2.51-.14.32-.27.62,0,.35-.13,2.08-.19,1.25v0l-.43.58-.05,0-.74.55-.19,0-1.08.14-.82.11-1.22.11-.24.12-.17.08-.26.06-.35.06-.67-.29-.37-.49-.22-.32-.15-.11-.18,0-.38.31-.43.38-2.37,1.35-.84.17-1.91.12-.51.15-.23.07-.2.33-.06.51v.08l0,.21.05.6.17.4.1,0,.41.22.31,0,1.61-1.09,1-.69,1.22-.49.52-.07.13,0,.27.06.3.07.4.3.21.34.11.19.08.29,0,.24,0,.06-.16.27-.33.1-.22,0-.29-.17-.16-.2-.22-.07-.26-.11-.05,0-.27.19L875,752l-.47.93-.47.33-.06,0-.73.13-1-.11-.75-.16-.43-.1-.42-.11-.32,0-.11.11v.27l.25.4.27.44,0,.36-.08.58-.25.35-.47.23h-.34l-.33-.27,0,0-.41-.85-.29-.2-.32,0-.36,0-.35,0h0l-.35-.09-.19-.3-.09-.36,0-.19-.07-.08-.16-.18-.45-.29-.17-.07-.1,0-.52.11-.19.16-.13.39-.15,1.26,0,1.21,0,.63-.09.15-.13.23-.43.28-.42.2-.42.07-.41,0-.09.09V758l-.16,1.05-.15.31,0,.06-.4.21-.73.4-.62.22-.14.05-.12.08-.49.32-.56.51-.67.58-.6.42-.37.2-.4.22-.35.05h0l-2.24.14-.57,0h0l-.87.34-.67.25,0,.39.19,1.93,0,.35-.33.67-.11.22-.22.52,0,2.08-.31.49-.25.31.06.24.06.09.07.09.18.23.18.23.16.51,0,.93-.16.41-.14.34-.28.31-.33,0h-.37l-.58.12-.16.09-.13.07-.2.25,0,.08,0,.13v0l.06.17.38.1,1.07.41.27.09.41.14.16.19.27.32.43.77.23.5,0,.07v1.06l-.12.32-.07.19-.05.08-.13.18-.65.33-.46.4v0l0,.17.08.22.62.09,1.37.31,1,.19.23.18.45.49.4.69.17.46.09,1.19-.11.31-.21.65-.76,1.41-.64.59-.19.41,0,.06-.13.71v0l-.38.83-.73,1.35-.83.68-.62.41-.09.06-.49.08-.44,0-.33,0-.47.05-.68.14-.3.21-.55.27-.11,0-.83.25h0l-.53.09h-.31l-.57.11-.3.16-.45.19-.61.12h-.25l-.78,0-.47-.09h-.06l-.89-.5-.69-.46-.51-.36-.83-.31-.61,0-.46.09-.45.25-.53.1-.62-.15-.49-.39h0l-.36-.42-.16-.43-.28-.15-.46,0-1.38-.27-1.41-.23-.64-.25-.34-.2-.2-.17-.25-.21-.41,0-.29,0-.61-.12-.72-.33-2.34-1-1-.35-.22-.07-.41,0h-.18l-.43,0-.71.09-.79.2-.08,0-.91.14-.78.06-1.07-.1-1.15,0-.53.09-.85.74-1.3,1.63-.79.24-.66.18-.52.14H814l-.31-.13-.25-.43-.32-.88-.75-1.86-.66-1.09-.94-1.39-.81-.92-.7-.65-.22,0-.07,0-.1.19v.28l0,.13.05.11.33.43.73.91.64,1,.51.71.69,1.38.76,2,.26,1,.2,1.52,0,.4,0,.59-.28.28h0l-.17,0-.5.13h-1.71l-.32.21-.88.84-.91,1.15L808,797l-.34,1-.38.72-.5.4-.58.29h0l-.71.13h0l-1.05,0-.56-.29-.35-.25-.6-.42-.52-.24-.55-.18h-.71l-.69.24-1,.65-.34.29-.35.37-.29.25-.29.13-.45,0h-.44l-.55,0-.38,0-.29-.07-.34-.06-.31-.11-.36-.09-.82-.15-2.59-1-1.31-.44-.92-.3-.91-.31-1.31-.13-.72.09-.46.11-.36.28-.3.22-.52.22h-.26l-.79,0h-.29l-.41.1-.75.17-.8.3h-.36l-1.49.06-.7-.1-1.79-.64-2.18-.76-.39,0-1.29,0h-.2l-.46.1-.55.46-.77,1.13-.32.44-.71,1-1,.72-.14.08-.23.15-.43.27-.49.08-.61-.09-.55-.24-.53-.23-.54-.41-.49-.24-.27-.26-.12-.12-.15-.11-.32-.25-.12-.09-.48,0h0l-.15,0-.64.18-.34.6-.3.49-.11.17-.19.14-.35.25-.82.14-1.28.06-2.26-.29-.11,0-1.93-.65-.6-.2-.21-.07-1.77-.32-1.31,0-1.48.08-2,.1-2.35-.22-3.17-.5-1.74-.13-.79,0-.68.17-.77.18-.88.11-.26,0-.35-.08-1-.21-.22-.08-1.55-.53-2.18-1-1.4-.12-1.24-.12-4.51-.43h-1.25l-.64-.14-.76-.32-.49-.11h-.06l-.81.23-1.28.82-1.83.64-1.58.24-.31.05-1.83-.18-1.28.06-1.31.12-3.33,2.24-1.94,1.36-2,0-4.52-1.08-2-.34-4.24-.52-2.41-.53-2-1.21-1.77-1.07-1-.09.62,1.09.87,1.7,1.38.93.17.4.21.51.06.13.46.36.06.05,1.1.48,2.1.67,1.9,1.21h2.47l2.51.38,1.76.27,3,1.82,5.67,1.95,2.33,1.21,2.75,1.8.39.21.92.49,1.15.38.83.16.75.26,5.47,1.35,2.43-.12,1.22.07.5,0,1.57.69.82.6.23.16,1.33,1.4,2.64,1.8,5.67,2.79L744,824l1.3.41.93.3,1.25.4,3.21.73,1.09.17.18,0,.87.07.27,0,1.09-.2,1.06-.27.43-.22,1.09-1.06.13-.15.81-.87.29-.18,1.59-.58.17-.06.61-.24.28-.15.27-.1h0l.53-.11.56,0,.59.34.72.4.72.38.57.1h.72l.46-.09.53-.11.4-.09,2-.65,1.67-.5,2.94-1.16.47-.13,1.25-.27,1.18-.26h.34l1.61-.06,2.59.23,1.54,0,1.56-.33,2.89-.53.37-.07,1.51-.44.43-.3.78-.75,1.56-1.71.53-.47,1.27-.56,1-.22.74,0,.47,0h.73l.63-.26.55-.18h.82l.3,0,.46,0,.22.13.59.34,1.44.79,1.44.49.92.22.64-.08.25-.05.38-.09.51-.53.62-.4.62-.2,1.09-.38,1-.55.73-.14,1.84-.18.92,0,1.24.18h.32l1.66.18,1.46.24.61.17.75.31.1,0,.59.07.46-.11.65-.31.44-.32.67-.24.7,0h.06l.62.23.36.17.31.38.18.69.06.93-.26.5-.34.4-.51.24-.51.06h-.67l-.78-.08-.51-.2-.42-.18-.69-.14h-.8l-1.07.27-2.1.7-1,.25-2.4.52-6.76,1.14-2.53.56-1,0-2.57.22-9.2,2.61-2.87.48-8.7,2.57-9.11,3.23-7.19,1.87-2.47.53-.95-.14-1-.37-1.45-.22-4.94.15-5-.29-5-.92-5.17-1.29-3.56-1.14-7.45-3.1-6.16-2.91-7.39-3.2-1-.11L705.65,817l-1-.45-6.38-3.13-1.88-.65-2.18-.22L692.5,812l-1.6-1.45-4-3.92-1.74-.58-3.71-1.24-3.7-1.16-3.56-.29-6.62-.44-6.68-1.09L653,800.64l-4-.73-2.76-1-2.61-1.3-1.38-1.09-3-1.31L634.26,794l-5.67-.51-2.1-.65-2.1-1.1-1.56-1.35-1.09-1.63-.36-1-.51-.73-.76-.36-.16,0-1.17-.15L617,786.2l-3.2.25-2.14.29-1,.39-.22.09-.44.32-.51.29-.32-.14-.26-.47-.07-.62,0-.65,0-.48-.25-.47-.35-.37-.78-.83-1.38-.94-2.76-.62-4.36-1-.77-.19-2.92-.7-7.19-1.59-6.52-2.16-2.33-.48-1.5,0h-.35l-1.93-.55-2.39-1.19-1.49-.8-1.06-1.24-1-1.09-.22-.69-.69-.69-1.82-1.72-1.34-.93-.26-.49-.69-1.33-.72-2.23-2-2.15-3-3.3-1.12-.76-1.7-1.07-.77-.91-1.27-2-.24-.36,0-.11,0-.21,0-1.6-.36-1,0-.05-.49-1.11-1.1-1.26L550,746.16l-.73-.79-.59-.64-2.2-4-.5-.73-.82-1.36-.36-.67-.23-.42-.31-.76-.61-.85-.27-.5-.27-.5-.11-.55v-.91l-.15-.56L541,731.08,541,731l-1.79-3.13-.87-1.74L536.59,725l-.44-.52-1-1.42-.44-.61-.35-.48-.22-.56v-.44l.19-.68,0-.13v-.66l-.1-.43-.08-.39-.35-.76-.08-.11-.16-.22-.1-.14-.33-.33-.36-.27-.53-.42-.43-.23-2-3.19-.94-2.08-.49-1.11-.17-.38,0-.19-.22-.93-.3-1.08.1-1,.67-.81.73-.38.34,0,.34,0,.91-.11.61-.24.59-.52.92-.59.63-.11.52-.26.27-.11.28-.11.47-.08.26,0,.35.08.44.26,1.83,2.19.33.45.7,1.3,1.48,1,.91.46.81-.09.31.3.59.65.78.86,1.48,1.07.18.22.61.74.46.87.18.67,0,1.37-.11,1.16v.22l0,.3.17.61,1.65,5.82,1.39,1.92,1.57.53,2-.18,1-.09,1.42-.54,1-.39.68-.12,1.94-.13h.08l.4-.12.53-.08.43.11.53.47,1,1.65.58,1.14.22,1.13,0,.58-.28,1.7-.1.49-1.49,5.55-.15,1.94.13.66h0l1.11,1.74,1,1,.35-.35L562.52,740l-.12-.32,0-.13-.05-.13-.08-.64,0-.22.06-.5.13-.49L563,736l.25-.94.39-1.2.1-.56.12-1.08.06-.22.27-.93.39-.91-1-3.32-1-2.21-.53-.73-.08-.09-.32-.35-.7-.17-.47,0-1,.2-.67.1-2,0-3-.52-1.63-.29-.7-.41-.58-.81.06-.93,1-1.22.46-1.8.12-2-.91-4.26-1.08-3.69-.93-2-.32-.61-.44-.93-.29-.7-.47-1.34-.49-1-.35-.7-.38-.58-.23-.58-.88-2.34-.26-.23-.27-.18-.3-.11-.26-.12-.29-.15-.32-.24-.21-.35-.3-1.42-.15-.24-.65-.84-.53-.55-.37-.58-.53-.91-.23-.64-.15-.93.09-.87.3-1.51.06-5.72-.25-.46-1.71-3.22-1.23-2.4-.23-.52-.22-.51.08-2-.37-1.4-.49-1.45-.14-.41-1-1.29-1.27-1.34-2.83-1.67-1.8-1-2.38-1.23-.61-.58-1-1.89-.66-1.44-2.62-3.42-1.69-1-2.2-1.46-2.17-2.08-1.6-1.32-2.91-1.53-3.79-2.49L507,643l-2-2.75-.74-1.74v-1.35l.44-1.44,1-2.22,4.06-4.8,3.09-4.66,1.36-4.85.93-1.92,4.82-9.53,3.26-3.9,2-1.76,3.54-3.06,3.08-1.69,2-.29,1.63.18,1.16.35.87.64.53.87.58,1,1.22,1,.75.64.87.64.64.64.82.52.35-.4-.29-.53-.7-.75-.87-.93-1.85-1.48-1-1.83-.87-1.4.23-.41.81-.11.58-.06.76-.23.52-.29,1.11-1.34,1-1.89.63-.61,3.15-3,10.12-4.71,8.54-2.85,15.35-3.83,6.84-2.33,6-1.9.62-.19,1.38-.55,2.08-.82,1.85-1.27,1.06-.23,3.63-.79,2.48-.33,10-1.36,4.18-.59,5.56-.77,1.3-.33,2.51-1.79,1-1.09.41-.72,2.31-2.22,1.75-.65,1.13-.61.76-.38h0l.69.17.7.59.13.11,1.22.43,2.31-.48,1.92-.3.57-.31-.09-.56-.52-.61,0-1.09.44-.57.48-1.09.09-1.09.83-1.26.81,0,.58.14.09,0,.35-.19.81-.81.35-.51v-.17l0-.73.05-.25.15-.74.18-.41.09-.2,2.41-2.76,2.29-2.29,1.23-1.23.06,0,.31-.09.1,0,.57.71.11,1.12-.11.95.18,1.16.29.87.48.77.43.43.15.33,0,.58.08.73-.18,1.38-.19.51.22.4.28-.25.7-.63.29-1.16v-.87l0-.66v-.1l-.29-.66,0,0-.38-.76-.29-.69-.19-.69-.14-.65-.07-.8-.11-.51.22-.65.54-.51.8-.36,1.92,0,1.74-.37v0l.94-.8,1.44-2.74.12-1.84.63-1.37,1.65-.86,1.88.07,1.79.53,2.08.1.29-.3.37-.28.12-.1,1.45.08.84.78.06,0,.57.53,1.29.74.82,0h.11l.44-.14.07,0,.78-.59.18-.13.84,0,1.41.09.86.11.29.29h.23V535l-.3-1.15-.15-.78.1-.25.45-1.08.18-.45.76-.63,1.23-1.26L689,529l1.35-1.24h0l2.77-.62,1.07-.24,1.21.47,1.53.84.84.86,1.79-.1.72-.46.3-.61,3,.24.91-.58.51-.38-.53-1.72-.51-1.95.11-1.05.7-2.3,1.16-1.21,1.49-.95,2.19-2.51.93-.68.68-.22.8-.09.56,0,.34,0,.89-.15,1.28-.69.55-.45.73-.43.11-.06h1l1.25,0,.51-.93.89-.92.36-.25.87,0,1.25.42h.53l.71-.16.37-.19,1.14-.57,1-.57.31-.21.31.09.25.29.29.32.2.47.07.4.11.36.2.15.22,0,.12-.06.3-.84.29-1.25,0-.33.06-.39-.29-1.09-.44-1.14-.09-.53,0-1.06v-.06l.36-.71.17-.18.38-.4,2.35-1.46.68-.38,1.75-1.67,1.76-1.65.7-.29.2-.28.13-.72.58-1.4.24-.56.16-.18.66-.73,1.27-.92,1.19-.68,3.47-1.68.91-.66.44-.15.53-.18,1.1-.05.8-.31.42-.24.07-.44-.19-.19,0,0-.5-.2-.14-.46.19-.56.53-.59.75-.38L750,486h1l1.59.35.88.43.74.45.65.39.46.18,2.62-.24h0l2.83-.6.44-.09.85-.62,0-.35.24-2.07.16-.45,1-3,1.66-1.36,1-1.29,1-1.13.81-.76.06-.05.87-.38,1.3-.31,1.11-.07,2.09-.13,1.49.33,2.74,0,.48-.35.12-.2-1.86-.62-.2-.07-.9-.43-.24-.22-.3-.25-.53-.39-.46-.14-.07,0-.3-.21-.06,0-.38-.54-.5-1.48-.06-2.82.76-1.07.54-1.12.43-.77.2-.35.05-.08,1.13-1.06.85-.78.47-.38.13-.16,0-.29-.1-.22v0l-.24-.31-.05-1v-.3l0-.68.21-.76.31-.25.52-.17.42-.13.3-.13.13-.42-.14-.74-.33-1.67-.22-.56-.25-.33-.24-.4,0-.43-.12-.2.16-1.25.59-.55.3-.82,0-.54.15-.66.45-.73.9-.52.71-.29,1,0,.56.19.44.21.15-.05,0-.64-.15-.92-.73-.53-.13-.6v-1.08l.18-.42v0l.53-.25.08-.06.45-.3.49-.57,0-.53.09-.82.42-.56.53-.15.62,0,.78-.75.54-.66.07-.58,0-.34.11-.46.3-.66.74-.8.68-.05.6-.11.63-.53.52-.46L790,434l.94-1.22.93-.15.77.08.65.31,1.87,1.39.42.15.65,0h.22l.25,0,.09.07.24.19.22.1.24,0,.22-.09.12-.05.58-.26.13-.05,1-.43.43-.19,1.3-.67.52-.37.3-.21,1.4-1.44,1.26-1.45.7-.82.51-.49.13-.13.54-.21.67-.13.49.19.07.12.09.13v0l.77.39.48-.08.63,0,.29.06h.2l.38-.07.24-.06.54-.2h.67l.28.17.23.27.15.31,0,.27v.4l.11.23.17.08.29-.13.25-.31.31-.47.31-.53,0-.22.09-.49-.14-.56-.55-1-1-.82-.78-.24-.57.14-.2.08-.53.37-.74.57-.49.13-.48-.06-.47-.29-1.31-1-2-3.33-.46-.93v-.14l0-.28.43-2.1L805,418l0-.14-.18-1-.18-.39V416l0-.6.45-1.88.64-.45.5-.3h.64l.44.06.3,0h.1l.22-.15.07,0v0l.15-.32,0-.46-.09-.67.05-.64.09-1.27.43-.71.52-.35,1-.66h.73l.07-.36V406l.06-1.08.64-1,.73-.79.13-.68,1.19-1.14,1.19-1.08,1.07,0,.55-.88.67-.55,1.17-.39.77.19.36.11h0l.29,0,.51-.39.28-.66.08-.2v-.72l0-.55.68-.64.78-.24,1.76.11.29.29.23.31.2.47.2.22.22.05h0l.09,0h0l.11-.26.17-.34.53-.45.64-.6H827l.81,0,.75-1.09.43-1,.15-1.22.62-.53.67-.13,1.24-.74.59-.21.53-.19.77-.05.28,0,.23-.08h0l.31-.33.75-.4.8-.14,1-.17.64,0,.55-.39.54-.4,1.51-.55,2.47-2.13,1.37-.76,1.47-.82.19-.51v-.81l0-1.24-.23-2.61-.23-1-.11-.53v-.05l0-.33.51-1.23,0-.13.06-.05.27-.23,1-.41.17-.09.41-.05h0l.23,0,.13-.1.1-.27v-.19l-.09-.23-.22-.23-.52-.44-.4-.36-.17-.29-.17-1.82.1-.34.43-1,.5-.66.34-.44.64-.57.12-.12.46-.12.16-.49.37-.7.66-1,.08-.64.07-.52.62-.79.73-.84.63-.57,1.06-.55,2.92-2.41,1.06-.87,2.21-.63,1.55,0,1.77-.41,1.21-.86.94-.42,1.18-.36,1.69-.09,1.78.41h1.62l1.12.2,1.39,0,.79-.69.88-.9,1-.85.35-.25,1.53-1.2,1.08-.64,1-.32h.34l1.22-.05,1,.24,1,.81,1.37,1.25.55.75.17.24,0,0,1.07.73.61,1,.52,1.08.13.31.89,2.24.44.44.27.07h.06l.26-1.08.89-2.39.8-1.13,1.55-1.12.11-.1.8-.56-.08-.31-.23-.07-.27,0-1.13.2-1.33.43-.58.18-1,.27-.6.08h-.88l-.35-.2-.18-.27-.11-.31-.2-.6-.67-.49-1-1.08-1.14-2.26-.49-1.15-.28-1.15-.19-1.44-.05-1.92-.14-1.23-.14-.65-.29-.62-.28-.38-.15-.49v0l-.12-2.22.26-1.34.43-1.36.68-2.36.3-.56v-.57l.42-1,.4-.89.14-1.39.59-1.82.29-1.26.18-1.41.2-1.68.7-1.3,1.12-.81,1.12-.38,1.45-.16.23-.22.05-.38.11-.87.33-1.38.8-1.89,1.63-2.51,2.18-1.87.69-.6,1.46-2.32.83-2.44-.25-1.74-.73-.08-.07.44-.15.91-.29.83-.72,1.57-.66,1-1.23,1.2-.77.44-1.38.18-1.16.11-.08.07-.36.33-1,1.05-.23.27-.46.53-.73.58-1.23.69-.76.26-1.57.25-.51,0-.54,0-1.92-.44-1.24-1.12-.92-.93-.39-.38-.94-1.49-.44-2-.14-2,.21-1.89,1.13-3.06.76-1.7.91-1.6,1-1.49,1.75-2.51,1.2-2.29,1-1.23,1.41-1.92.23-.41.68-1.29.74-.87.31-.69.41-.68.57-.65.44-.57.24-.65.39-.64.54-.24H893l.66,0,.82-.41.2-.33-.17-.11-.25,0-.38.09-1,.06h-.69l-.44.14-.58.49-.24.31-.58,1.07-1.23,1.7-.94,1.17-1.13,1-.68.6-.74,1-.16.19-1,1.52-1.16,1.9-.7.77L882,293l-.42.49-.22.28-.19.33-.16.16-.24.16-.31.11-.9,1.2-1,1.31-.52.6-.28.18-.19,0h-.43l-.16.27,0,.38.06.34V299l-.15,0-.14-.22-.08-.28-.11-.4-.11-.46,0-.24.18-.56,0-.7,0-.27v-.06l.37-.76v-.46l-.09-.52-.17-.26-.57-.31-.61-.13-.54.09-.39.2-.33.28-.46.28-.41,0-.19-.13-.51-.33,2.66-4.81,3.7-3.69.66-.43.52,0,.44.13.37-.05.39-.13.35.07.37.5.63.74.66.39h.51l1.37-.76,1.92-1.54.72-1.3.53-.79,1.63-1.39.43-.58.2-.53v-.07l-.07-.45-.18-.29-.52-.29-.41,0-.43.26-.85,1-3.11,4-.46.52-.58.18-.32-.21-.23-.14-.26-.28-.18-.19-.09-.46.76-.61,2.47-2.42,2.21-2.23.75-.47.85.09,1.65,1.31,1,.61.29-.09,1.57-2.06.24-.39.14-.22.11-.67-.08-.35L893.81,274l-.62-.74,1.86-1.17,1.75,2.39,1.74,1.19.75.17.3.06H901l-.87-.44-.48-.43-.18-.28-.17-.25-.13-.78.39-.61.79-.66,2,.05,1.35-.22.74-1,1-.77,1.08-1.17,3.84-2.44,2.53-1.44,2.62-1.22,2.26-2.14,1.79-2.53,3.36-1.92,5-2.79,4.6-1.2.37-.17,1.9-.87,1.36-.51,1.45-.42.71-.36,3.93-.72,1-.07,1.35-.1,0,0,.93-1v-1.05l.33-.46,1.47-1.28,1.48-1,1.77-1.06.48-.28.15,0,.69-.15.9-.11.48-.29.25-.15.73-.22h1l.13,0,1.32.5.2.07,1.55.55,3.49.2h.29l2.25-.29.91-.43,1.85-1.2.77-.53.39-.27.58-.22.44-.18.11,0h.25l2.11-.07.87-.14.55-.66.08-.58.06-.44.08-.43.13-.66.39-.57,3.43-.64,2.76-1.39,3.14-1.45,1.31-1.22.28-.15,1.92-1.15.91-.38,2.58-1.08,1.55-.56.46-.17,2.73-.75.21,0,1.09.1,2.53-.47,3-1.78h0l.73-.43,7.26-3.59,1.37-.62,4.16-1.53,4.73-1.62.57-.19.53,0,.54,0,.35.21.2.28.19.33,0,.05.33.11.31.05.27,0,.38-.23.2-.35-.05-.6-.06-.32,0-.18.11-.29.67-.46.65-.43.2-.14,3.35-1.78,1-.57.88-.38,1.46-.65.32-.12,1.92-.86,1.64-.67,2.16-.71,3.8-1.07,3.66-.82,3-.57,1.81-.34,6.63-1.25,4.23-.51.51-.09.89,0,1.17,0,1.69.21h.91l.69.08.83.3,1.31.38.71.09,1-.05h0l.66,0,.54.21,1.09.42.87.18.31.29.13.39.46,1,.38.6.67.43.53.08.58,0,.37-.18.18-.49v-.33l-.06-.23-.13-.79.05-.53.33-.38.57-.2.23-.15.79-.7.9-1.3,1-.7.87,0,.72.26.5.29.14.11.26.21.64.09.32,0,.5-.18.38.12.55.67.52.58.44.52.33.16.71.34.53.28.43.24.61.19.24-.11.22-.31.25-.68.22-.63.25-.4.37-.51.22-.22.25-.56,1.25-1.49,0,0,0,0,0,0h0l.26-.24.41-.33.44-.13h.53l.63.15.86.31,1.59.76,4.66,1.4,5.54,1.36.67.15,2.22.51,4.31.63,1.65.24Zm129.85,546.48.28.06.47-.13.28-.29.29-1.26-.09-.46-.27-.7,0-.07-.39-.59-.16-.08-.19,0h-.27l-.27.09-.23.37-.26.43-.13.4,0,.59.27.67.11.26.12.27,0,0,.19.18Zm-13.13,16.55.29.16h.36l.46-.05.64-.16.6-.28.27-.22.09-.38,0-.29-.1-.23-.26-.08-.31,0-.45.09-.74.23-.59.24-.21.16-.06.1,0,.14,0,.15v.14Zm-3.9,11.8.28,0,.28-.2.08-.29v-.69l-.08-.33,0-.26-.13-.13-.19,0-.49.46-.19.44v.21l.12.29.16.35v0ZM1192,813.47l.28.29.41,0,1.15-1.07,1.38-1.78,2.45-2.82,1.64-1.9,1.23-1.69,1.15-1.27.7-.68.6-.81.49-.75.13-.56v-.47l-.38-.11-.58.36-.44.36-2.45,2.13-2.92,3.25-3,4.23-1.34,1.93-.49,1ZM1123.48,849l.44,0,1.31,0,.89,0,1.74.62.44.11.45-.06.84-.47.38-.64,0-.41-.63-.88-2.93-.85-.89-.14h-1.63l-.89.26-.66.45-.2.29v.26l.25.61.33.26Zm-32.4,16.18.06.82.64,1,2.13,1.6,2.18,1.25.74.31,4,1,4.26,0,2.85-.44,1.51-.43,1.25-.61.75-1,.32-.52,0-.93-1-1-1.78-.41-3.4-.35-3.88-.22-1-.14-2.84,0-1.26,0-3.86-.55-1.28.23Z" transform="translate(-488.98 -202.74)"/><polygon class="cls-1" points="588.27 3.1 588.53 3.3 588.81 3.3 589.09 3.28 589.33 3.23 589.57 3.23 589.96 3.28 590.19 3.49 590.31 3.76 590.18 4.05 589.83 4.23 589.49 4.26 589.09 4.13 588.55 4.1 587.81 4.24 587.23 4.55 586.4 4.78 585.48 4.91 584.8 4.88 584.37 4.66 584.33 4.49 584.28 4.24 584.31 3.81 584.52 3.37 585.03 3.1 585.29 3.04 585.59 2.96 586.46 2.83 587.21 2.86 587.72 2.94 588.27 3.1"/><polygon class="cls-1" points="740.78 118.64 739.81 118.75 739.01 118.28 738.97 118.26 739.01 117.35 739.16 116.48 739.7 115.75 740.26 114.77 740.71 115.09 742.17 117.06 742.13 117.14 741.94 117.54 741.71 118 741.51 118.3 740.78 118.64"/><polygon class="cls-1" points="765.87 194.57 765.51 194.57 765.15 194.5 765.13 194.49 765.09 194.46 764.91 194.34 764.73 194.09 764.6 193.65 764.6 192.7 764.6 192.6 764.6 192.54 764.84 191.55 765.35 190.9 765.48 190.79 765.53 190.75 765.72 190.69 766.11 190.75 766.38 190.87 766.54 191.03 766.63 191.12 766.68 191.24 766.78 191.51 766.85 192.06 766.93 192.75 766.94 193.1 766.94 193.11 766.94 193.13 766.82 193.64 766.71 194.07 766.71 194.08 766.6 194.19 766.46 194.33 766.15 194.49 765.87 194.57"/><polygon class="cls-1" points="108.81 362.68 108.2 363.12 107.54 363.03 106.8 362.42 106.63 361.29 106.5 359.19 105.76 357.59 105.32 356.65 104.48 353.91 104.32 352.69 104.33 352.1 104.52 351.62 104.86 351.43 105.24 351.42 105.25 351.42 105.72 351.52 106.03 351.87 106.28 352.36 106.78 353.51 107.05 354.42 107.15 355.19 107.15 355.97 107.45 358.54 107.98 360.15 108.76 361.85 108.81 362.68"/><polygon class="cls-1" points="36.27 467.85 37.17 467.9 38.61 467.82 39.57 467.2 40.13 466.33 40.57 465.33 41.01 464.37 42.01 463.85 43.14 463.94 44.23 464.24 45.23 464.85 46.5 466.03 47.24 467.2 47.85 468.16 47.98 468.9 47.98 469.82 47.79 472.21 47.69 473.19 47.76 474.1 48.16 475.19 48.7 475.77 49.21 476.39 49.97 477.22 50.59 478.02 50.81 478.53 50.99 479.29 50.99 479.84 50.9 480.72 50.94 483.77 50.99 484.2 51.08 484.96 50.95 487.18 50.71 488.5 50.58 489.21 49.41 492 48.73 492.78 48.59 492.86 48.53 492.89 47.94 493.01 47.68 493.06 46.24 493.26 45.5 493.83 44.93 494.7 44.66 495.45 44.45 495.7 43.67 496.62 42.45 497.36 40.97 497.67 39.57 497.36 38.31 496.75 37.31 494.91 37 494.43 36.72 493.98 36.37 493.18 36.11 492.2 35.32 490.72 35.21 490.43 34.39 488.66 33.87 485.92 33.36 485.12 32.42 484.17 32.24 483.59 32.24 483.01 32.6 481.52 33.68 478.77 33.8 477.96 33.76 477.31 33.32 475.93 31.59 472.74 31.04 471.57 30.9 471.3 30.71 470.91 27.59 465.97 26.61 463.86 26.11 463.48 22.36 460.57 16.69 456.34 14.61 453.93 14.21 453.47 14.17 453.42 12.35 451.08 11.9 450.5 11.5 449.73 10.87 448.54 9.07 445.09 7.18 442.17 6.79 441.23 6.49 440.55 5.51 438.47 5 437.49 4.82 436.62 4.84 436.37 5.08 435.18 5.01 433.76 4.97 433.52 4.92 433.21 4.84 433.08 4.64 432.73 3.76 432 2.86 431.21 2.02 430.38 1.79 430.04 1.35 429.4 1.14 428.76 1.16 428.45 1.21 428.25 1.3 427.92 2.02 426.87 2.17 426.35 2.19 425.88 2.18 425.84 2.15 425.74 2.12 425.62 1.7 425.37 0.92 424.99 0.63 424.66 0.63 424.66 0.63 424.66 0.52 424.22 0.62 423.89 1.44 422.68 1.35 421.38 0.83 420.59 0.74 419.85 1 419.33 1.83 418.94 2.79 419.24 4.49 420.63 6.23 421.55 7.63 422.9 8.54 424.47 9.06 426.43 9.15 426.84 9.4 427.6 9.75 429.21 10.62 431.52 10.97 433.66 11.14 436.32 12.41 439.35 13.62 441.21 14.11 441.96 14.14 442 16.29 444.62 19.39 446.11 19.47 446.15 21.87 447.48 22.99 448.13 23.53 448.24 24.7 448.31 24.96 448.4 25.27 448.5 25.39 448.53 26.37 449.4 26.39 449.59 26.51 450.6 26.62 450.82 26.78 450.92 27.08 451.1 28.35 451.81 30.15 452.85 31.11 453.99 33.28 456.13 34.22 457.3 34.29 457.45 34.8 458.5 35.21 460.09 35.23 460.74 35.02 462.31 34.62 464.31 34.71 466.72 35.42 467.43 35.93 467.7 36.18 467.83 36.27 467.85"/><polygon class="cls-1" points="799.64 485.27 799.37 485.29 799.28 485.26 799.14 485.21 798.96 485.08 798.89 484.98 798.87 484.95 798.84 484.92 798.81 484.81 798.8 484.76 798.81 484.54 798.81 484.47 798.9 484.3 798.91 484.28 798.99 484.18 799.05 484.1 799.22 484.04 799.84 484.04 799.93 484.11 799.95 484.13 800.08 484.33 800.13 484.51 800.11 484.71 800.03 484.86 799.9 485.08 799.88 485.09 799.67 485.27 799.64 485.27"/><polygon class="cls-1" points="798.05 488.53 797.8 488.54 797.61 488.53 797.56 488.46 797.55 488.45 797.43 488.24 797.42 488.2 797.42 488.19 797.43 488.08 797.47 487.99 797.89 487.48 798.05 487.37 798.43 487.19 798.55 487.16 798.68 487.16 798.78 487.23 798.85 487.35 798.84 487.44 798.84 487.47 798.84 487.47 798.77 487.84 798.66 488.03 798.49 488.2 798.44 488.24 798.17 488.48 798.09 488.53 798.05 488.53"/><polygon class="cls-1" points="795.19 491.83 795.02 491.85 794.88 491.77 794.64 491.54 794.55 491.46 794.52 491.39 794.53 491.3 794.84 490.74 795.08 490.52 795.34 490.37 795.53 490.33 795.78 490.31 796.01 490.54 796.09 490.69 796.18 490.9 796.19 491.11 796.1 491.36 795.93 491.48 795.75 491.6 795.49 491.71 795.19 491.83"/><polygon class="cls-1" points="46.32 496.14 46.01 496.15 45.46 496.1 45.23 495.98 45.09 495.74 45.12 495.65 45.15 495.56 45.79 494.93 46.61 494.38 47.38 493.93 47.79 493.81 48.07 493.81 48.24 493.86 48.38 494 48.43 494.23 48.35 494.5 47.95 495.3 47.78 495.65 47.73 495.76 47.5 495.96 47.31 496 47.18 496.03 46.66 496.12 46.32 496.14"/><polygon class="cls-1" points="48.95 495.94 48.78 496.11 48.69 496.1 48.56 496.1 48.43 495.99 48.42 495.86 48.43 495.69 48.5 495.42 48.7 495.08 48.93 494.82 49.32 494.49 49.5 494.44 49.51 494.43 49.66 494.43 49.73 494.51 49.82 494.62 49.82 494.75 49.82 494.81 49.73 495.04 49.58 495.27 48.95 495.94"/><polygon class="cls-1" points="53.22 505.38 52.69 505.4 52.34 505.26 51.72 504.94 50.91 504.4 50.31 503.73 49.84 503.07 49.59 502.53 49.38 502.09 49.08 501.06 48.97 499.69 49.06 499.11 49.21 498.83 49.34 498.58 50 497.5 50.88 496.51 51.17 496.48 51.31 496.46 51.75 496.87 51.85 497.24 51.95 497.58 51.99 498.86 52.27 500.14 52.37 501.35 52.51 501.92 53.27 502.68 53.46 503.34 53.7 504.3 53.8 504.98 53.81 505.22 53.64 505.36 53.49 505.37 53.22 505.38"/><polygon class="cls-1" points="389.46 559.4 389.26 559.6 389.04 559.6 388.86 559.58 388.61 559.67 388.53 559.83 388.48 559.93 388.5 560.42 388.53 560.44 388.82 560.71 389.1 561.02 389.37 562.22 389.4 562.43 389.51 563.25 389.47 563.92 389.32 564.96 388.71 566.25 387.55 567.94 386.44 568.67 386.23 568.78 385.88 569.02 385.84 570.05 385.83 570.35 385.5 570.85 384.94 571.46 384.72 571.52 384.71 571.51 384.68 571.44 384.57 571.24 384.44 570.06 384.35 569.1 384.39 568.41 384.45 568.11 384.59 567.31 385.46 566.16 385.42 564.9 385.09 563.92 385 563.43 385.02 562.88 385.18 562.51 385.42 562.26 385.96 561.98 386.35 561.87 386.46 561.65 386.22 561.52 385.9 561.26 385.37 561.13 384.85 561.13 384.32 561.11 384.18 561.11 383.63 560.79 383.12 560.02 382.33 557.3 382.09 556.59 382.06 556.05 382.18 555.39 382.43 554.85 383.2 554.21 383.49 554.02 383.73 553.87 384.67 553.34 385.24 552.99 385.34 552.92 385.69 552.82 385.71 552.82 385.73 552.81 386.05 552.67 386.47 552.49 387.94 551.04 389.57 549.8 390.51 548.58 391.09 548.17 391.88 548.03 392.02 548 392.57 548.12 393.21 548.35 393.57 548.76 393.75 549.36 393.75 549.39 393.79 549.67 394 551.3 394 551.84 393.79 553.73 393.35 555.02 393.2 555.36 392.08 556.33 390.68 557.49 390.54 557.76 390.24 558.31 389.81 558.64 389.55 558.85 389.55 558.86 389.55 558.86 389.46 559.4"/><polygon class="cls-1" points="508.27 582.89 508.35 583.34 508.23 583.63 507.82 583.95 505.62 584.23 505.32 583.87 504.42 582.99 503.67 583.11 503.53 583.01 502.86 581.48 501.71 579.7 501.61 579.3 501.74 579.1 501.75 579.1 501.86 579.06 502.1 578.98 502.62 579.07 503.99 579.44 504.75 579.89 506.28 580.78 508.27 582.89"/><polygon class="cls-1" points="451.62 583.76 451.11 583.76 450.87 583.74 450.53 583.72 449.73 583.21 449.27 582.64 448.27 581.52 448.09 580.86 448.14 580.21 448.48 579.77 449.4 579.77 450.48 580.22 451.73 580.38 452.2 580.78 452.42 581.62 452.5 582.34 452.38 582.86 452.14 583.36 451.62 583.76"/><polygon class="cls-1" points="339.2 587.05 339.42 587.12 340.19 587.12 340.51 587.17 340.78 587.37 340.8 587.39 341.49 588.11 341.52 588.14 341.54 588.18 341.58 588.29 341.87 589.03 341.93 589.53 341.81 595.1 341.41 595.61 341.15 595.93 340.86 596.09 340.32 596.19 339.86 596.16 339.57 596.13 339.53 596.13 339.13 595.99 339.02 595.88 338.6 595.49 337.96 594.61 337.6 593.56 337.3 593.1 336.66 592.83 335.99 592.67 335.32 592.77 334.94 593.01 334.88 593.1 334.87 593.12 334.75 593.3 334.79 593.42 334.83 593.59 335.06 593.79 335.28 593.97 335.97 594.13 336.52 594.26 336.76 594.41 336.86 594.48 336.96 594.72 336.89 594.93 336.86 595.01 336.76 595.32 336.72 595.34 336.53 595.45 336.14 595.73 335.15 596.46 335.01 596.55 332.19 596.61 331.13 596.63 331.08 596.57 330.38 595.96 330.07 595.61 329.8 592.79 329.7 592.43 329.23 592.06 328.75 591.89 328.11 591.8 327.55 591.76 327.14 591.58 326.44 591.28 326.2 590.99 326.08 590.86 326.06 588.57 326.44 588.3 326.84 588.25 326.87 588.25 326.94 588.24 327.27 588.27 327.74 588.39 328.34 589.34 328.48 589.43 328.68 589.38 328.86 589.3 329.01 589.23 329.13 589.01 329.13 588.66 329.1 587.92 328.98 587.41 328.91 586.69 328.96 586.52 329.02 586.34 329.03 586.32 329.45 585.73 329.96 585.45 330.37 585.4 330.79 585.35 331.19 585.39 331.62 585.58 331.63 585.58 331.65 585.6 332.2 586.09 332.33 586.57 332.43 586.95 332.33 587.44 332.27 587.86 332.38 588.07 332.4 588.11 332.72 588.2 333.02 588.21 333.24 588.15 333.27 588.14 333.56 587.94 333.57 587.9 333.63 587.67 333.74 587.15 333.74 586.53 333.74 586.53 333.78 586.13 333.94 585.75 334.11 585.58 334.27 585.41 334.62 585.23 336.35 585.09 336.76 585.13 337.17 585.28 337.21 585.37 337.31 585.58 337.46 585.79 337.69 586.09 337.86 586.24 337.92 586.29 338.27 586.38 338.78 586.67 339.2 587.05"/><polygon class="cls-1" points="364.22 600.3 363.15 600.83 359.49 602.31 358.94 602.57 354.62 602.99 351.7 603.27 351.03 603.33 350.62 603.7 350.48 604.23 350.42 604.89 350.51 605.79 350.54 606.67 350.27 607.39 350.04 607.86 349.7 608.1 349.46 608.21 349.41 608.24 349.28 608.24 349.07 608.19 348.72 608.02 348.68 608 348.52 607.88 347.62 607.19 346.3 606.18 345.89 605.88 344.72 605.62 344.32 605.42 344.16 605.26 343.97 605.07 343.74 604.72 343.68 604.48 343.62 604.25 343.69 601.95 344.43 601.12 345.22 600.39 345.31 600.31 345.35 600.28 346.12 599.66 346.64 599.61 347.43 599.78 348.01 600.01 348.46 600.05 349.06 599.92 350.6 599.4 351.38 599.72 352.16 600.22 352.3 600.27 352.78 600.46 354.65 600.68 354.66 600.68 355.65 600.65 356.27 600.53 357.38 600.16 357.48 600.13 357.51 600.11 358.26 599.67 358.53 599.52 359.6 598.7 360.34 597.74 360.63 597.33 362.78 594.13 363 593.79 364.81 591.5 365.57 590.43 368.12 586.96 368.5 586.7 368.67 586.56 368.82 586.44 369.54 586.36 369.57 586.35 369.64 586.36 370.3 586.38 370.38 586.43 370.59 586.56 370.68 586.61 371.11 588.82 371.35 589.59 371.59 590.02 372.31 590.82 372.71 592.09 372.6 593.03 372.17 593.5 371.66 594.05 370.88 594.37 369.84 594.78 368.41 595.07 368 595.51 367.45 596.44 366.92 597.22 366 598.59 365.36 599.37 364.22 600.3"/><polygon class="cls-1" points="730.24 591.22 729.8 591.25 729.59 591.2 729.39 591.06 729.29 590.92 729.24 590.7 729.12 590.28 729.07 590.14 729.03 589.98 729.01 589.78 729.02 589.58 729.14 589.34 729.6 589.16 729.74 589.23 729.86 589.45 729.89 589.93 729.98 590.14 730.07 590.21 730.17 590.28 730.3 590.29 730.35 590.29 730.5 590.32 730.63 590.42 730.68 590.57 730.66 590.75 730.66 590.78 730.61 590.99 730.46 591.11 730.24 591.22"/><polygon class="cls-1" points="723.3 593.96 723.45 594.01 723.66 593.95 723.8 593.8 723.98 593.69 724.1 593.69 724.21 593.73 724.28 593.82 724.34 594.05 724.31 594.49 723.96 595.08 723.94 595.13 723.81 595.35 723.53 595.47 723.33 595.42 723.16 595.07 723.13 594.87 723.09 594.67 723.01 594.61 722.85 594.61 722.64 594.64 722.47 594.61 722.36 594.5 722.34 594.35 722.35 594.25 722.37 594.11 722.61 593.8 722.8 593.68 722.99 593.68 723 593.68 723.12 593.74 723.22 593.83 723.3 593.96"/><polygon class="cls-1" points="722.04 597.09 721.8 597.15 721.58 597.1 721.4 596.96 721.37 596.72 721.39 596.44 721.36 596.35 721.3 596.15 721.12 596.03 720.96 595.98 720.73 595.92 720.69 595.88 720.58 595.73 720.51 595.46 720.62 595.26 720.91 595.09 721.53 594.74 721.85 594.69 721.86 594.69 722.07 594.76 722.19 595.03 722.17 595.43 722.32 595.75 722.44 595.93 722.51 596.12 722.5 596.35 722.46 596.63 722.33 596.87 722.29 596.94 722.04 597.09"/><polygon class="cls-1" points="284.84 598.86 284.57 598.87 284.41 598.84 284.31 598.68 284.31 598.48 284.44 598.28 284.54 597.94 284.51 597.37 284.44 597.03 284.3 596.8 284.16 596.56 284.15 596.36 284.25 596.17 284.42 596 284.79 596.01 284.82 596.03 285.3 596.27 285.69 596.76 285.91 597.2 285.94 597.54 285.95 597.97 285.79 598.36 285.43 598.71 285.12 598.79 284.84 598.86"/><polygon class="cls-1" points="338.85 598.6 338.44 598.67 337.92 598.54 337.66 598.18 337.54 597.89 337.63 597.64 337.76 597.37 338.01 597.26 338.09 597.25 338.47 597.19 338.7 597.21 338.82 597.22 339.11 597.37 339.43 597.53 339.56 597.82 339.53 598.1 339.52 598.18 339.47 598.22 339.23 598.43 338.85 598.6"/><polygon class="cls-1" points="284.36 601.97 283.83 602.08 283.08 602.07 283 602.03 282.69 601.87 282.5 601.63 282.29 601.12 282.19 600.8 282.18 600.54 282.37 600.23 282.63 600.04 282.83 599.93 283.77 599.83 284.66 599.91 285.12 600.26 285.19 600.32 285.2 600.36 285.37 600.77 285.37 601.08 285.37 601.28 284.96 601.71 284.36 601.97"/><polygon class="cls-1" points="294.44 602.93 293.8 602.99 293.6 602.89 293.57 602.69 293.59 602.29 293.66 602.08 293.76 601.79 293.92 601.55 294.21 601.15 294.53 600.94 294.98 600.92 295.24 600.92 295.69 601.06 295.95 601.27 296.06 601.71 296.14 601.98 296.08 602.4 295.89 602.61 295.48 602.79 294.44 602.93"/><polygon class="cls-1" points="299.51 603.67 298.65 603.72 298.2 603.64 298.03 603.59 297.31 603.3 297.14 603.13 297.1 602.73 297.08 602.38 297.08 602.25 297.1 602.18 297.19 601.83 297.74 601.34 297.88 601.24 297.99 601.18 298.47 601.06 298.6 601.05 299.04 601.04 299.47 601.09 299.69 601.33 299.92 601.61 300.54 602.3 300.76 602.62 300.79 602.88 300.75 603.13 300.47 603.41 300.44 603.44 300.03 603.64 299.51 603.67"/><polygon class="cls-1" points="321.99 607.63 320.69 607.79 320.4 607.7 320.3 607.57 320.18 607.41 320.06 607.09 320.02 606.38 320.03 606.31 320.04 606.19 320.07 605.92 320.16 605.6 320.67 605.21 321.42 604.85 321.8 604.71 322.38 604.49 324.03 603.88 324.49 603.71 325.56 603.2 326.49 602.69 326.67 602.69 326.85 602.69 327.01 602.74 327.27 602.83 327.36 602.85 327.9 603.25 328.18 603.64 328.33 604.02 328.42 604.59 328.36 604.96 327.98 605.6 327.92 605.7 327.91 605.71 327.25 606.33 326.18 606.92 324.92 607.19 324.03 607.3 323.14 607.41 321.99 607.63"/><polygon class="cls-1" points="250.15 614.71 248.69 614.71 248.33 614.51 247.97 614.06 247.86 613.68 247.95 613.24 248.02 612.93 248.46 611.72 248.85 611.15 248.91 611.06 249.38 610.63 250.13 610.2 250.85 609.79 251.49 609.54 251.63 609.48 251.83 609.45 252.05 609.41 252.42 609.46 252.63 609.69 252.63 612.01 252.82 612.19 253.09 612.42 253.09 612.47 253.12 612.76 253.12 612.79 252.98 613.15 252.8 613.34 252.67 613.48 252.63 613.51 252.25 613.9 251.88 614.06 251.27 614.33 250.56 614.66 250.15 614.71"/><polygon class="cls-1" points="266.68 621.31 266.37 621.39 266.06 621.37 265.79 621.27 265.52 620.96 265.31 620.49 265.23 620.16 265.23 619.92 265.23 619.57 265.24 619.57 265.45 619.19 265.48 619.13 265.55 619.05 265.81 618.76 266.06 618.56 266.2 618.53 266.39 618.49 266.72 618.48 266.93 618.58 267.17 618.94 267.35 619.32 267.4 619.63 267.36 619.95 267.32 620.22 267.05 620.82 266.85 621.16 266.68 621.31"/><polygon class="cls-1" points="263.92 620.97 263.47 621.07 263.08 621.06 262.93 621.02 262.92 621.02 262.7 620.96 262.3 620.63 262.19 620.46 262.19 620.18 262.2 619.79 262.32 619.42 262.4 619.29 262.51 619.24 262.75 619.14 263.06 619.07 263.3 619.11 263.33 619.12 263.63 619.23 264.02 619.45 264.39 619.81 264.47 620.04 264.49 620.12 264.5 620.19 264.53 620.35 264.43 620.59 264.23 620.77 263.92 620.97"/></g></svg>